<svg width="771" height="148" viewBox="0 0 771 148" fill="none" xmlns="http://www.w3.org/2000/svg">
<path d="M653.656 89.125C653.656 84.375 654.948 80.9167 657.531 78.75C660.198 76.5834 663.656 75.5 667.906 75.5C669.573 75.5 671.115 75.5417 672.531 75.625C674.031 75.7084 675.448 75.9167 676.781 76.25C678.115 76.5834 679.406 77.0834 680.656 77.75C681.99 78.4167 683.365 79.375 684.781 80.625C684.781 80.375 684.781 79.875 684.781 79.125C684.865 78.2917 684.906 77.4167 684.906 76.5C684.906 75.5834 684.906 74.75 684.906 74C684.906 73.1667 684.906 72.5834 684.906 72.25C684.823 70.75 684.781 68.8334 684.781 66.5C684.781 64.0834 684.573 61.625 684.156 59.125C683.823 56.625 683.073 54.25 681.906 52C680.823 49.75 679.031 48.0417 676.531 46.875C674.781 46.875 673.156 47.1667 671.656 47.75C670.156 48.3334 668.656 48.9584 667.156 49.625C665.656 50.2917 664.156 50.9167 662.656 51.5C661.156 52 659.531 52.25 657.781 52.25C657.781 50.1667 658.406 48.4584 659.656 47.125C660.99 45.7084 662.573 44.625 664.406 43.875C666.24 43.125 668.156 42.625 670.156 42.375C672.156 42.125 673.906 42 675.406 42C676.906 42.25 678.281 42.5417 679.531 42.875C680.865 43.2084 682.073 43.875 683.156 44.875C684.323 45.875 685.365 47.4167 686.281 49.5C687.281 51.5 688.115 54.3334 688.781 58C689.531 61.6667 690.156 66.3334 690.656 72C691.24 77.5834 691.698 84.4584 692.031 92.625C692.198 93.7084 691.823 94.6667 690.906 95.5C690.073 96.25 688.906 96.9167 687.406 97.5C685.906 98 684.198 98.4584 682.281 98.875C680.448 99.2084 678.573 99.4584 676.656 99.625C674.74 99.7917 672.906 99.9167 671.156 100C669.406 100.083 667.948 100.125 666.781 100.125C665.281 100.125 663.74 99.875 662.156 99.375C660.656 98.875 659.24 98.1667 657.906 97.25C656.656 96.25 655.615 95.0834 654.781 93.75C654.031 92.3334 653.656 90.7917 653.656 89.125ZM669.906 80.375C665.74 81.5417 662.823 82.9584 661.156 84.625C659.49 86.2084 658.74 87.75 658.906 89.25C659.156 90.75 660.156 92.125 661.906 93.375C663.656 94.5417 665.781 95.3334 668.281 95.75C670.781 96.0834 673.49 95.875 676.406 95.125C679.323 94.2917 682.115 92.7084 684.781 90.375C683.781 87.9584 682.781 86.125 681.781 84.875C680.781 83.5417 679.698 82.5417 678.531 81.875C677.365 81.2084 676.073 80.7917 674.656 80.625C673.24 80.4584 671.656 80.375 669.906 80.375Z" fill="#06150A"/>
<path d="M596.781 110.487C596.781 109.853 596.865 109.314 597.031 108.87C597.115 108.427 597.365 108.173 597.781 108.11C598.115 108.046 598.615 108.173 599.281 108.49C599.948 108.87 600.781 109.568 601.781 110.582C601.781 111.406 602.573 112.072 604.156 112.579C605.656 113.086 607.406 113.467 609.406 113.72C611.406 114.038 613.448 114.228 615.531 114.291C617.531 114.355 618.99 114.386 619.906 114.386C623.99 114.386 627.448 113.816 630.281 112.674C633.198 111.597 635.573 110.107 637.406 108.205C639.323 106.366 640.698 104.179 641.531 101.643C642.448 99.1701 642.906 96.5706 642.906 93.8444C642.906 89.9136 642.531 86.1095 641.781 82.4323C641.115 78.8185 640.198 75.2046 639.031 71.5908C637.865 67.9136 636.531 64.2046 635.031 60.464C633.531 56.66 632.031 52.6657 630.531 48.4813C629.948 46.5793 629.781 45.1528 630.031 44.2018C630.281 43.2508 630.698 42.6484 631.281 42.3948C631.948 42.0778 632.656 42.0144 633.406 42.2046C634.24 42.3948 634.906 42.6801 635.406 43.0606C636.823 47.0548 638.24 51.1758 639.656 55.4237C641.073 59.6081 642.406 63.8876 643.656 68.2623C644.906 72.6369 645.906 77.0433 646.656 81.4813C647.406 85.9193 647.781 90.294 647.781 94.6052C647.781 97.585 647.281 100.47 646.281 103.259C645.281 106.112 643.698 108.617 641.531 110.772C639.448 112.928 636.823 114.672 633.656 116.003C630.49 117.334 626.698 118 622.281 118C620.281 118 617.823 117.968 614.906 117.905C611.99 117.842 609.198 117.556 606.531 117.049C603.781 116.605 601.49 115.876 599.656 114.862C597.74 113.911 596.781 112.452 596.781 110.487ZM624.906 19C625.99 19 627.156 19.1268 628.406 19.3804C629.656 19.5706 630.823 19.9193 631.906 20.4265C632.99 20.8704 633.865 21.4727 634.531 22.2335C635.281 22.9309 635.656 23.7868 635.656 24.8012C635.656 27.2738 633.948 28.5101 630.531 28.5101C628.948 28.5101 627.74 28.1931 626.906 27.5591C626.073 26.9251 625.49 26.1326 625.156 25.1816C624.906 24.2306 624.781 23.2162 624.781 22.1384C624.865 20.9972 624.906 19.951 624.906 19ZM630.531 24.3257C630.281 24.3257 630.156 24.4842 630.156 24.8012C630.156 25.0548 630.281 25.1816 630.531 25.1816C630.865 25.1816 631.031 25.0548 631.031 24.8012C631.031 24.4842 630.865 24.3257 630.531 24.3257Z" fill="#06150A"/>
<path d="M578.531 99.25C578.365 97.9167 578.198 96 578.031 93.5C577.948 90.9167 577.823 88.0417 577.656 84.875C577.573 81.625 577.49 78.25 577.406 74.75C577.323 71.25 577.24 67.9167 577.156 64.75C577.073 61.5834 576.948 58.75 576.781 56.25C576.698 53.6667 576.531 51.7084 576.281 50.375C576.281 50.2917 576.24 50.0834 576.156 49.75C576.156 49.4167 576.115 49.0417 576.031 48.625C576.031 48.2084 576.031 47.875 576.031 47.625C576.031 47.2917 576.031 47.0417 576.031 46.875C577.281 45.875 578.323 45.5417 579.156 45.875C580.073 46.2084 580.823 46.9584 581.406 48.125C581.99 49.2084 582.406 50.5834 582.656 52.25C582.906 53.9167 583.073 55.5834 583.156 57.25C583.323 58.9167 583.406 60.4584 583.406 61.875C583.406 63.2084 583.406 64.1667 583.406 64.75C583.573 63.3334 583.823 61.6667 584.156 59.75C584.49 57.8334 584.99 55.875 585.656 53.875C586.323 51.875 587.115 49.9167 588.031 48C589.031 46 590.24 44.25 591.656 42.75C593.073 41.25 594.656 40.0834 596.406 39.25C598.24 38.4167 600.323 38.0834 602.656 38.25C606.323 38.4167 609.323 39.4167 611.656 41.25C614.073 43.0834 615.948 45.5417 617.281 48.625C618.698 51.7084 619.698 55.25 620.281 59.25C620.948 63.25 621.365 67.5 621.531 72C621.781 76.5 621.865 81.0834 621.781 85.75C621.698 90.3334 621.656 94.75 621.656 99C620.906 99.1667 620.156 99.4584 619.406 99.875C618.656 100.208 618.031 100.333 617.531 100.25C617.031 100.25 616.656 99.9167 616.406 99.25C616.24 98.5 616.323 97.0834 616.656 95C616.74 93.5 616.865 91.2084 617.031 88.125C617.281 84.9584 617.365 81.4584 617.281 77.625C617.281 73.7917 617.073 69.8334 616.656 65.75C616.24 61.6667 615.448 57.9584 614.281 54.625C613.198 51.2084 611.615 48.4584 609.531 46.375C607.448 44.2084 604.74 43.125 601.406 43.125C597.99 44.5417 595.115 47.2084 592.781 51.125C590.531 55.0417 588.698 59.625 587.281 64.875C585.948 70.125 584.948 75.8334 584.281 82C583.698 88.0834 583.365 94.0417 583.281 99.875C583.115 99.7917 582.781 99.75 582.281 99.75C581.865 99.75 581.365 99.75 580.781 99.75C580.281 99.6667 579.781 99.5834 579.281 99.5C578.865 99.4167 578.615 99.3334 578.531 99.25Z" fill="#06150A"/>
<path d="M533.406 89.125C533.406 84.375 534.698 80.9167 537.281 78.75C539.948 76.5834 543.406 75.5 547.656 75.5C549.323 75.5 550.865 75.5417 552.281 75.625C553.781 75.7084 555.198 75.9167 556.531 76.25C557.865 76.5834 559.156 77.0834 560.406 77.75C561.74 78.4167 563.115 79.375 564.531 80.625C564.531 80.375 564.531 79.875 564.531 79.125C564.615 78.2917 564.656 77.4167 564.656 76.5C564.656 75.5834 564.656 74.75 564.656 74C564.656 73.1667 564.656 72.5834 564.656 72.25C564.573 70.75 564.531 68.8334 564.531 66.5C564.531 64.0834 564.323 61.625 563.906 59.125C563.573 56.625 562.823 54.25 561.656 52C560.573 49.75 558.781 48.0417 556.281 46.875C554.531 46.875 552.906 47.1667 551.406 47.75C549.906 48.3334 548.406 48.9584 546.906 49.625C545.406 50.2917 543.906 50.9167 542.406 51.5C540.906 52 539.281 52.25 537.531 52.25C537.531 50.1667 538.156 48.4584 539.406 47.125C540.74 45.7084 542.323 44.625 544.156 43.875C545.99 43.125 547.906 42.625 549.906 42.375C551.906 42.125 553.656 42 555.156 42C556.656 42.25 558.031 42.5417 559.281 42.875C560.615 43.2084 561.823 43.875 562.906 44.875C564.073 45.875 565.115 47.4167 566.031 49.5C567.031 51.5 567.865 54.3334 568.531 58C569.281 61.6667 569.906 66.3334 570.406 72C570.99 77.5834 571.448 84.4584 571.781 92.625C571.948 93.7084 571.573 94.6667 570.656 95.5C569.823 96.25 568.656 96.9167 567.156 97.5C565.656 98 563.948 98.4584 562.031 98.875C560.198 99.2084 558.323 99.4584 556.406 99.625C554.49 99.7917 552.656 99.9167 550.906 100C549.156 100.083 547.698 100.125 546.531 100.125C545.031 100.125 543.49 99.875 541.906 99.375C540.406 98.875 538.99 98.1667 537.656 97.25C536.406 96.25 535.365 95.0834 534.531 93.75C533.781 92.3334 533.406 90.7917 533.406 89.125ZM549.656 80.375C545.49 81.5417 542.573 82.9584 540.906 84.625C539.24 86.2084 538.49 87.75 538.656 89.25C538.906 90.75 539.906 92.125 541.656 93.375C543.406 94.5417 545.531 95.3334 548.031 95.75C550.531 96.0834 553.24 95.875 556.156 95.125C559.073 94.2917 561.865 92.7084 564.531 90.375C563.531 87.9584 562.531 86.125 561.531 84.875C560.531 83.5417 559.448 82.5417 558.281 81.875C557.115 81.2084 555.823 80.7917 554.406 80.625C552.99 80.4584 551.406 80.375 549.656 80.375Z" fill="#06150A"/>
<path d="M494.406 51.125C495.406 50.7084 496.281 50.625 497.031 50.875C497.781 51.125 498.406 51.5834 498.906 52.25C499.406 52.9167 499.781 53.7084 500.031 54.625C500.281 55.4584 500.49 56.2917 500.656 57.125C501.74 55.2917 503.281 53.8334 505.281 52.75C507.365 51.5834 509.573 50.8334 511.906 50.5C514.24 50.0834 516.573 50 518.906 50.25C521.24 50.4167 523.198 50.9167 524.781 51.75C526.448 52.5 527.615 53.5834 528.281 55C528.948 56.3334 528.781 57.9167 527.781 59.75C525.615 58.5 523.323 57.5 520.906 56.75C518.573 56 516.281 55.75 514.031 56C511.781 56.25 509.698 57.125 507.781 58.625C505.865 60.0417 504.281 62.3334 503.031 65.5C501.781 68.6667 500.99 72.875 500.656 78.125C500.406 83.2917 500.781 89.75 501.781 97.5H497.031C497.031 97.5 496.948 96.8334 496.781 95.5C496.698 94.0834 496.573 92.25 496.406 90C496.323 87.75 496.156 85.25 495.906 82.5C495.74 79.75 495.573 76.9584 495.406 74.125C495.24 71.2917 495.073 68.5834 494.906 66C494.823 63.3334 494.698 61.0417 494.531 59.125C494.531 58.875 494.49 58.375 494.406 57.625C494.406 56.875 494.406 56.0834 494.406 55.25C494.406 54.3334 494.406 53.5 494.406 52.75C494.406 52 494.406 51.4584 494.406 51.125Z" fill="#06150A"/>
<path d="M432.781 108.649C432.781 106.966 433.156 105.688 433.906 104.816C434.656 103.943 436.406 103.507 439.156 103.507C438.906 104.379 438.615 105.252 438.281 106.125C437.865 106.997 437.531 107.808 437.281 108.556C436.948 109.304 436.823 109.896 436.906 110.333C436.906 110.769 437.198 110.925 437.781 110.8C440.448 112.109 443.365 113.044 446.531 113.605C449.698 114.166 452.823 114.447 455.906 114.447C460.573 114.384 464.573 113.668 467.906 112.296C471.323 110.925 474.115 109.148 476.281 106.966C478.531 104.784 480.24 102.26 481.406 99.3922C482.656 96.587 483.406 93.6572 483.656 90.6026C483.99 87.6104 483.906 84.587 483.406 81.5325C482.906 78.478 482.115 75.6728 481.031 73.1169C479.615 74.3013 478.156 75.5481 476.656 76.8572C475.24 78.1663 473.698 79.3507 472.031 80.4104C470.365 81.4078 468.573 82.2494 466.656 82.9351C464.823 83.6208 462.74 83.9637 460.406 83.9637C457.99 83.9637 456.156 83.652 454.906 83.0286C453.74 82.4052 452.948 81.5637 452.531 80.5039C452.115 79.3819 451.906 78.1039 451.906 76.6702C451.99 75.2364 452.031 73.7091 452.031 72.0883C452.031 70.5922 452.073 68.9091 452.156 67.039C452.323 65.1689 452.615 63.2987 453.031 61.4286C453.531 59.4961 454.156 57.626 454.906 55.8182C455.74 53.9481 456.823 52.2961 458.156 50.8624C459.49 49.3663 461.156 48.1819 463.156 47.3091C465.156 46.4364 467.531 46 470.281 46C472.031 46 473.698 46.1247 475.281 46.3741C476.948 46.5611 478.448 46.9351 479.781 47.4961C481.198 48.0572 482.406 48.8052 483.406 49.7403C484.406 50.6754 485.198 51.8598 485.781 53.2935C486.115 56.0987 486.531 59.1533 487.031 62.4572C487.531 65.6987 487.948 69.0961 488.281 72.6494C488.615 76.1403 488.781 79.6624 488.781 83.2156C488.781 86.7689 488.448 90.1974 487.781 93.5013C487.198 96.8052 486.156 99.8909 484.656 102.758C483.24 105.688 481.198 108.244 478.531 110.426C475.948 112.67 472.698 114.447 468.781 115.756C464.865 117.127 460.156 117.875 454.656 118C452.323 118 449.865 117.875 447.281 117.626C444.698 117.439 442.323 117.003 440.156 116.317C437.99 115.694 436.24 114.758 434.906 113.512C433.49 112.327 432.781 110.707 432.781 108.649ZM456.781 72.0883C456.781 72.7741 456.74 73.5533 456.656 74.426C456.573 75.2987 456.615 76.1715 456.781 77.0442C456.948 77.9169 457.281 78.665 457.781 79.2883C458.365 79.9117 459.281 80.2546 460.531 80.3169C462.531 80.3169 464.365 79.9741 466.031 79.2883C467.781 78.6026 469.323 77.6676 470.656 76.4832C472.073 75.2987 473.281 73.9896 474.281 72.5559C475.365 71.0598 476.24 69.5325 476.906 67.9741C477.656 66.4156 478.198 64.9195 478.531 63.4857C478.948 61.9896 479.156 60.6806 479.156 59.5585C479.406 58.3741 479.406 57.1896 479.156 56.0052C478.99 54.8208 478.531 53.7611 477.781 52.826C477.031 51.8909 476.031 51.1429 474.781 50.5819C473.531 49.9585 472.031 49.6468 470.281 49.6468C468.281 49.6468 466.531 50.0832 465.031 50.9559C463.531 51.7663 462.281 52.826 461.281 54.1351C460.281 55.4442 459.49 56.9403 458.906 58.6234C458.323 60.2442 457.865 61.8961 457.531 63.5793C457.281 65.2 457.073 66.7896 456.906 68.3481C456.823 69.8442 456.781 71.0909 456.781 72.0883Z" fill="#06150A"/>
<path d="M379.496 117.738C379.496 114.832 379.874 111.838 380.63 108.757C381.386 105.675 382.143 102.594 382.899 99.5131C383.739 96.4319 384.412 93.3507 384.916 90.2696C385.504 87.1884 385.588 84.1654 385.168 81.2005L353.781 44.4009C355.63 43.2382 357.101 42.5988 358.193 42.4825C359.285 42.3081 359.916 42.279 360.084 42.3953C360.672 42.9766 361.638 44.0521 362.983 45.6218C364.412 47.1914 366.008 49.0227 367.773 51.1156C369.622 53.2084 371.554 55.4176 373.571 57.743C375.588 60.0684 377.479 62.2775 379.243 64.3704C381.092 66.4632 382.647 68.3236 383.907 69.9513C385.252 71.5791 386.176 72.7128 386.68 73.3522L392.479 41L398.781 43.1801L385.168 118L379.496 117.738Z" fill="#06150A"/>
<path d="M264.156 89.75C265.656 89.75 267.031 90.0417 268.281 90.625C269.615 91.2084 270.906 91.875 272.156 92.625C273.406 93.2917 274.656 93.9167 275.906 94.5C277.24 95 278.656 95.25 280.156 95.25C281.906 95.25 283.698 94.9584 285.531 94.375C287.448 93.7084 289.198 92.8334 290.781 91.75C292.365 90.5834 293.656 89.2084 294.656 87.625C295.656 85.9584 296.156 84.1667 296.156 82.25C296.24 81.6667 296.24 80.9584 296.156 80.125C296.156 79.2917 295.906 78.4584 295.406 77.625C294.906 76.7084 294.073 75.875 292.906 75.125C291.74 74.2917 290.031 73.6667 287.781 73.25C285.615 72.8334 282.865 72.625 279.531 72.625C276.198 72.5417 272.073 72.8334 267.156 73.5C265.906 73.5 264.698 73.1667 263.531 72.5C262.365 71.75 261.323 70.875 260.406 69.875C259.49 68.7917 258.74 67.6667 258.156 66.5C257.573 65.25 257.281 64.0834 257.281 63C257.281 59.75 257.948 57.125 259.281 55.125C260.698 53.0417 262.49 51.4167 264.656 50.25C266.823 49 269.24 48.125 271.906 47.625C274.573 47.125 277.281 46.875 280.031 46.875C281.281 46.875 282.698 46.9584 284.281 47.125C285.948 47.2084 287.448 47.5417 288.781 48.125C290.198 48.625 291.365 49.4584 292.281 50.625C293.281 51.7917 293.781 53.4167 293.781 55.5C293.615 56.9167 293.365 57.7917 293.031 58.125C292.781 58.375 292.365 58.2917 291.781 57.875C291.281 57.375 290.656 56.7084 289.906 55.875C289.156 55.0417 288.24 54.25 287.156 53.5C286.156 52.6667 284.906 52.0417 283.406 51.625C281.99 51.2084 280.365 51.2084 278.531 51.625C276.615 51.625 274.698 51.8334 272.781 52.25C270.865 52.5834 269.115 53.2084 267.531 54.125C266.031 55.0417 264.781 56.2917 263.781 57.875C262.865 59.4584 262.406 61.4584 262.406 63.875C262.406 65.125 262.948 66 264.031 66.5C265.198 66.9167 266.698 67.125 268.531 67.125C270.448 67.125 272.573 67.0834 274.906 67C277.323 66.8334 279.781 66.75 282.281 66.75C284.781 66.75 287.198 66.9584 289.531 67.375C291.865 67.7084 293.906 68.4584 295.656 69.625C297.49 70.7084 298.906 72.2917 299.906 74.375C300.906 76.4584 301.281 79.1667 301.031 82.5C301.031 84.9167 300.323 87.2084 298.906 89.375C297.573 91.5417 295.823 93.4584 293.656 95.125C291.573 96.7084 289.24 97.9584 286.656 98.875C284.073 99.7917 281.573 100.125 279.156 99.875C278.156 99.7917 276.781 99.5417 275.031 99.125C273.365 98.625 271.698 97.9584 270.031 97.125C268.448 96.2917 267.073 95.2917 265.906 94.125C264.74 92.875 264.156 91.4167 264.156 89.75Z" fill="#06150A"/>
<path d="M214.281 89.125C214.281 84.375 215.573 80.9167 218.156 78.75C220.823 76.5834 224.281 75.5 228.531 75.5C230.198 75.5 231.74 75.5417 233.156 75.625C234.656 75.7084 236.073 75.9167 237.406 76.25C238.74 76.5834 240.031 77.0834 241.281 77.75C242.615 78.4167 243.99 79.375 245.406 80.625C245.406 80.375 245.406 79.875 245.406 79.125C245.49 78.2917 245.531 77.4167 245.531 76.5C245.531 75.5834 245.531 74.75 245.531 74C245.531 73.1667 245.531 72.5834 245.531 72.25C245.448 70.75 245.406 68.8334 245.406 66.5C245.406 64.0834 245.198 61.625 244.781 59.125C244.448 56.625 243.698 54.25 242.531 52C241.448 49.75 239.656 48.0417 237.156 46.875C235.406 46.875 233.781 47.1667 232.281 47.75C230.781 48.3334 229.281 48.9584 227.781 49.625C226.281 50.2917 224.781 50.9167 223.281 51.5C221.781 52 220.156 52.25 218.406 52.25C218.406 50.1667 219.031 48.4584 220.281 47.125C221.615 45.7084 223.198 44.625 225.031 43.875C226.865 43.125 228.781 42.625 230.781 42.375C232.781 42.125 234.531 42 236.031 42C237.531 42.25 238.906 42.5417 240.156 42.875C241.49 43.2084 242.698 43.875 243.781 44.875C244.948 45.875 245.99 47.4167 246.906 49.5C247.906 51.5 248.74 54.3334 249.406 58C250.156 61.6667 250.781 66.3334 251.281 72C251.865 77.5834 252.323 84.4584 252.656 92.625C252.823 93.7084 252.448 94.6667 251.531 95.5C250.698 96.25 249.531 96.9167 248.031 97.5C246.531 98 244.823 98.4584 242.906 98.875C241.073 99.2084 239.198 99.4584 237.281 99.625C235.365 99.7917 233.531 99.9167 231.781 100C230.031 100.083 228.573 100.125 227.406 100.125C225.906 100.125 224.365 99.875 222.781 99.375C221.281 98.875 219.865 98.1667 218.531 97.25C217.281 96.25 216.24 95.0834 215.406 93.75C214.656 92.3334 214.281 90.7917 214.281 89.125ZM230.531 80.375C226.365 81.5417 223.448 82.9584 221.781 84.625C220.115 86.2084 219.365 87.75 219.531 89.25C219.781 90.75 220.781 92.125 222.531 93.375C224.281 94.5417 226.406 95.3334 228.906 95.75C231.406 96.0834 234.115 95.875 237.031 95.125C239.948 94.2917 242.74 92.7084 245.406 90.375C244.406 87.9584 243.406 86.125 242.406 84.875C241.406 83.5417 240.323 82.5417 239.156 81.875C237.99 81.2084 236.698 80.7917 235.281 80.625C233.865 80.4584 232.281 80.375 230.531 80.375Z" fill="#06150A"/>
<path d="M182.156 54.5C181.406 54.25 180.365 54.1667 179.031 54.25C177.781 54.25 176.406 54.3334 174.906 54.5C173.49 54.5834 172.115 54.7084 170.781 54.875C169.448 55.0417 168.323 55.125 167.406 55.125C166.99 55.125 166.698 54.5417 166.531 53.375C166.448 52.125 166.281 50.4584 166.031 48.375L183.656 47.125C183.906 44.2084 184.073 42.125 184.156 40.875C184.24 39.625 184.24 38.5834 184.156 37.75C184.156 36.8334 184.115 35.8334 184.031 34.75C184.031 33.5834 184.031 31.7917 184.031 29.375C186.198 29.0417 187.823 28.9584 188.906 29.125C190.073 29.2084 190.865 29.5 191.281 30C191.698 30.5 191.865 31.25 191.781 32.25C191.781 33.1667 191.656 34.3334 191.406 35.75C191.24 37.1667 191.073 38.875 190.906 40.875C190.823 42.875 190.906 45.125 191.156 47.625L206.156 47.125V53.25C205.49 53.25 204.448 53.2917 203.031 53.375C201.615 53.4584 200.073 53.5417 198.406 53.625C196.823 53.7084 195.323 53.7917 193.906 53.875C192.573 53.9584 191.573 54.125 190.906 54.375C190.24 57.375 189.531 60.5834 188.781 64C188.031 67.4167 187.531 70.7917 187.281 74.125C187.031 77.4584 187.115 80.5834 187.531 83.5C187.948 86.3334 188.99 88.7084 190.656 90.625C192.323 92.4584 194.698 93.75 197.781 94.5C200.865 95.1667 204.948 94.9167 210.031 93.75C209.865 95 209.365 96.0417 208.531 96.875C207.781 97.625 206.865 98.25 205.781 98.75C204.781 99.1667 203.698 99.5 202.531 99.75C201.365 99.9167 200.323 100 199.406 100C195.156 100 191.781 99.25 189.281 97.75C186.781 96.1667 184.906 94.125 183.656 91.625C182.406 89.125 181.615 86.2917 181.281 83.125C180.948 79.875 180.823 76.5834 180.906 73.25C181.073 69.9167 181.323 66.625 181.656 63.375C181.99 60.125 182.156 57.1667 182.156 54.5Z" fill="#06150A"/>
<path d="M118.031 99.25C117.865 97.9167 117.698 96 117.531 93.5C117.448 90.9167 117.323 88.0417 117.156 84.875C117.073 81.625 116.99 78.25 116.906 74.75C116.823 71.25 116.74 67.9167 116.656 64.75C116.573 61.5834 116.448 58.75 116.281 56.25C116.198 53.6667 116.031 51.7084 115.781 50.375C115.781 50.2917 115.74 50.0834 115.656 49.75C115.656 49.4167 115.615 49.0417 115.531 48.625C115.531 48.2084 115.531 47.875 115.531 47.625C115.531 47.2917 115.531 47.0417 115.531 46.875C116.781 45.875 117.823 45.5417 118.656 45.875C119.573 46.2084 120.323 46.9584 120.906 48.125C121.49 49.2084 121.906 50.5834 122.156 52.25C122.406 53.9167 122.573 55.5834 122.656 57.25C122.823 58.9167 122.906 60.4584 122.906 61.875C122.906 63.2084 122.906 64.1667 122.906 64.75C123.073 63.3334 123.323 61.6667 123.656 59.75C123.99 57.8334 124.49 55.875 125.156 53.875C125.823 51.875 126.615 49.9167 127.531 48C128.531 46 129.74 44.25 131.156 42.75C132.573 41.25 134.156 40.0834 135.906 39.25C137.74 38.4167 139.823 38.0834 142.156 38.25C145.823 38.4167 148.823 39.4167 151.156 41.25C153.573 43.0834 155.448 45.5417 156.781 48.625C158.198 51.7084 159.198 55.25 159.781 59.25C160.448 63.25 160.865 67.5 161.031 72C161.281 76.5 161.365 81.0834 161.281 85.75C161.198 90.3334 161.156 94.75 161.156 99C160.406 99.1667 159.656 99.4584 158.906 99.875C158.156 100.208 157.531 100.333 157.031 100.25C156.531 100.25 156.156 99.9167 155.906 99.25C155.74 98.5 155.823 97.0834 156.156 95C156.24 93.5 156.365 91.2084 156.531 88.125C156.781 84.9584 156.865 81.4584 156.781 77.625C156.781 73.7917 156.573 69.8334 156.156 65.75C155.74 61.6667 154.948 57.9584 153.781 54.625C152.698 51.2084 151.115 48.4584 149.031 46.375C146.948 44.2084 144.24 43.125 140.906 43.125C137.49 44.5417 134.615 47.2084 132.281 51.125C130.031 55.0417 128.198 59.625 126.781 64.875C125.448 70.125 124.448 75.8334 123.781 82C123.198 88.0834 122.865 94.0417 122.781 99.875C122.615 99.7917 122.281 99.75 121.781 99.75C121.365 99.75 120.865 99.75 120.281 99.75C119.781 99.6667 119.281 99.5834 118.781 99.5C118.365 99.4167 118.115 99.3334 118.031 99.25Z" fill="#06150A"/>
<path d="M104.031 51.375C105.031 51.375 105.865 51.3334 106.531 51.25C107.281 51.1667 107.906 51.5834 108.406 52.5C108.656 56.25 108.948 60.0834 109.281 64C109.615 67.8334 109.948 71.7084 110.281 75.625C110.615 79.5417 110.823 83.5 110.906 87.5C111.073 91.4167 111.115 95.25 111.031 99C111.031 99.5 110.906 99.7917 110.656 99.875C110.406 100.042 110.031 100.083 109.531 100C109.115 100 108.573 99.9584 107.906 99.875C107.323 99.875 106.656 99.9584 105.906 100.125L104.031 51.375ZM96.7812 29C96.7812 28.4167 96.8229 27.7917 96.9062 27.125C96.9896 26.375 97.1562 25.7084 97.4062 25.125C97.7396 24.5417 98.1146 24.0417 98.5312 23.625C99.0312 23.2084 99.6146 23 100.281 23C101.281 23 102.281 23.0417 103.281 23.125C104.281 23.2084 105.24 23.4167 106.156 23.75C107.073 24 107.823 24.4584 108.406 25.125C108.99 25.7084 109.281 26.5834 109.281 27.75C109.281 29.75 108.531 31.5417 107.031 33.125C105.531 34.625 103.698 35.375 101.531 35.375C99.8646 35.375 98.6562 34.75 97.9062 33.5C97.1562 32.1667 96.7812 30.6667 96.7812 29ZM104.031 29.625C103.781 29.625 103.656 29.8334 103.656 30.25C103.656 30.6667 103.781 30.875 104.031 30.875C104.365 30.875 104.531 30.6667 104.531 30.25C104.531 29.8334 104.365 29.625 104.031 29.625Z" fill="#06150A"/>
<path d="M40.7812 51.375C40.7812 50.9584 41.0312 50.5417 41.5312 50.125C42.1146 49.7084 42.7812 49.375 43.5312 49.125C44.3646 48.875 45.1562 48.7084 45.9062 48.625C46.6562 48.5417 47.1979 48.6667 47.5312 49C48.0312 59.3334 48.9896 67.5834 50.4062 73.75C51.9062 79.8334 53.5729 84.2917 55.4062 87.125C57.3229 89.9584 59.3646 91.4167 61.5312 91.5C63.6979 91.5 65.8229 90.5834 67.9062 88.75C69.9896 86.8334 71.9062 84.25 73.6562 81C75.4896 77.75 76.9479 74.25 78.0312 70.5C79.1979 66.75 79.9062 63 80.1562 59.25C80.4062 55.5 80.0729 52.1667 79.1562 49.25L86.6562 48.375C86.7396 49.625 86.9479 51.7084 87.2812 54.625C87.6979 57.4584 88.1146 60.7084 88.5312 64.375C89.0312 67.9584 89.5729 71.7084 90.1562 75.625C90.7396 79.5417 91.2396 83.2084 91.6562 86.625C92.0729 89.9584 92.4479 92.8334 92.7812 95.25C93.1146 97.5834 93.2812 99.0417 93.2812 99.625H87.9062L82.0312 78C80.8646 80.9167 79.4479 83.7084 77.7812 86.375C76.1146 89.0417 74.2812 91.375 72.2812 93.375C70.3646 95.375 68.3229 96.9584 66.1562 98.125C63.9896 99.2084 61.8229 99.6667 59.6562 99.5C57.5729 99.25 55.5312 98.25 53.5312 96.5C51.5312 94.75 49.6562 92 47.9062 88.25C46.2396 84.4167 44.7812 79.5 43.5312 73.5C42.2812 67.5 41.3646 60.125 40.7812 51.375Z" fill="#06150A"/>
<path d="M743.781 37C743.746 36.7166 743.419 35.2974 743.155 34.0116C742.894 32.7407 742.766 31.4916 741.734 30.4374C740.077 28.7434 737.718 28.2458 734.713 27.5554C731.487 26.8141 729.55 27.7379 725.746 27.6948C723.06 27.6644 721.136 25.5832 718.863 22.6832C716.126 19.1901 714.897 15.5702 714.36 12.7563C713.008 5.68065 713.424 4.63816 712.424 3.58807C711.388 2.4992 710.267 2.25887 709.954 2.09554C708.928 1.56082 712.749 3.41503 713.994 4.10066C716.51 5.48635 719.769 7.81308 721.455 8.39151C723.288 9.02021 727.183 8.34191 730.32 8.08363C732.447 7.9085 734.326 8.24492 735.387 8.60226C736.783 9.07222 737.59 10.5929 738.712 13.0567C739.735 15.3033 740.047 19.6918 740.478 24.2585C741.002 26.8704 741.718 27.7096 742.413 28.4286C742.705 28.7417 742.876 28.9496 743.075 29.2418" stroke="#011A07" stroke-width="4" stroke-linecap="round" stroke-linejoin="round"/>
<path d="M742.185 31C742.122 30.6131 741.971 29.3509 742.039 27.1236C742.126 24.2763 745.967 22.0968 747.914 20.9022C748.972 20.2532 750.143 20.1487 750.806 19.9154C752.246 19.4092 749.993 16.3078 749.794 13.8296C749.543 10.7123 752.5 8.58333 754.263 7.28954C756.194 5.87331 758.841 5.56294 763.336 4.73394C766.463 4.15731 768.35 2.20443 768.595 2.05138C769.454 1.51541 767.11 5.29155 766.316 7.94924C765.788 9.71769 766.954 11.088 767.277 12.3452C767.486 13.1612 767.636 13.9914 767.633 14.6871C767.631 15.2343 767.276 15.6925 766.788 16.2041C764.926 18.1585 760.402 19.2109 754.587 20.5287C752.342 21.0377 749.88 22.1518 746.775 23.7393C743.981 25.4624 742.462 26.569 742.148 26.9721C742.006 27.1854 741.9 27.4162 741.781 27.8523" stroke="#011A07" stroke-width="4" stroke-linecap="round" stroke-linejoin="round"/>
<path d="M702.107 118.051C702.384 116.702 702.8 115.859 703.354 115.521C703.964 115.184 704.601 116.027 705.267 118.051C705.267 118.275 705.516 118.613 706.015 119.062C706.569 119.4 707.234 119.849 708.01 120.411C708.842 120.861 709.784 121.367 710.837 121.929C711.946 122.378 713.027 122.828 714.08 123.278C715.133 123.615 716.159 123.952 717.157 124.289C718.154 124.514 719.013 124.626 719.734 124.626C721.619 124.626 723.337 123.84 724.889 122.266C726.497 120.58 727.855 118.444 728.963 115.859C730.127 113.273 731.014 110.351 731.624 107.091C732.234 103.719 732.539 100.29 732.539 96.8055C732.539 95.7938 732.455 94.0515 732.289 91.5785C732.123 88.9931 731.846 86.4639 731.458 83.991C731.07 81.4056 730.543 79.1012 729.878 77.0779C729.268 75.0545 728.52 74.0428 727.633 74.0428C721.868 75.3917 717.129 75.9538 713.415 75.729C709.757 75.3917 706.846 74.4925 704.685 73.0312C702.523 71.5699 700.998 69.6027 700.112 67.1297C699.28 64.5443 698.837 61.6217 698.781 58.3619C698.781 54.3152 699.28 50.4371 700.278 46.7277C701.276 42.9058 702.551 39.5335 704.103 36.6109C705.655 33.6883 707.373 31.384 709.258 29.6978C711.198 27.8993 713.11 27 714.995 27C716.547 27 718.154 27.3935 719.817 28.1803C721.536 28.9672 723.115 30.2037 724.557 31.8898C725.998 33.4635 727.162 35.5993 728.049 38.2971C728.991 40.8824 729.462 44.0299 729.462 47.7393C728.132 47.7393 726.912 47.0087 725.804 45.5474C724.695 43.9737 723.586 42.3437 722.478 40.6576C721.369 38.9715 720.205 37.3978 718.986 35.9365C717.766 34.3628 716.353 33.5759 714.745 33.5759C713.415 33.5759 712.057 34.2504 710.671 35.5993C709.341 36.9482 708.121 38.6905 707.013 40.8262C705.96 42.962 705.073 45.3788 704.352 48.0766C703.687 50.6619 703.354 53.3597 703.354 56.1699C703.354 57.294 703.354 58.5305 703.354 59.8794C703.41 61.1159 703.548 62.3524 703.77 63.5889C703.992 64.713 704.324 65.6684 704.768 66.4553C705.267 67.2421 705.96 67.6356 706.846 67.6356H729.213C730.155 67.6356 730.959 68.2538 731.624 69.4903C732.345 70.6144 732.927 72.0757 733.37 73.8742C733.869 75.6728 734.257 77.6961 734.534 79.9443C734.867 82.1924 735.116 84.3844 735.282 86.5201C735.504 88.6559 735.643 90.6792 735.698 92.5902C735.754 94.3887 735.781 95.7938 735.781 96.8055C735.781 101.189 735.476 105.348 734.867 109.283C734.257 113.105 733.342 116.589 732.123 119.737C730.903 122.772 729.379 125.301 727.55 127.324C725.721 129.235 723.614 130.416 721.231 130.865C720.067 131.09 718.542 131.034 716.658 130.697C714.828 130.359 712.972 129.741 711.087 128.842C709.202 127.83 707.428 126.481 705.766 124.795C704.103 122.997 702.883 120.748 702.107 118.051Z" fill="#011A07"/>
<path d="M40.7812 132.422C44.8256 132.42 55.6321 132.294 64.8303 132.035C87.1277 131.408 96.6565 130.138 106.299 128.448C110.33 127.741 117.469 126.834 125.912 125.82C134.356 124.806 143.907 123.805 157.092 123.315C170.276 122.825 186.804 122.876 202.782 123.683C218.76 124.49 233.686 126.05 246.165 127.014C258.643 127.978 268.22 128.297 277.199 129.066C294.338 130.534 306.676 133.192 313.295 134.612C321.838 136.445 335.849 138.175 349.339 139.11C363.207 140.936 373.861 142.116 383.082 142.722C388.214 142.864 396.866 142.931 405.781 143" stroke="#011A07" stroke-width="4" stroke-linecap="round" stroke-linejoin="round"/>
<path d="M403.781 143C405.976 142.997 415.209 142.467 433.54 139.243C442.918 137.594 458.255 134.437 470.795 132.371C483.335 130.304 492.578 129.267 501.008 128.696C516.747 127.63 525.125 128.048 530.449 128.271C534.983 128.461 543.242 128.652 551.112 129.361C558.982 130.07 566.215 131.252 572.642 132.571C584.471 135.311 596.002 137.794 607.138 139.345C612.31 139.877 616.506 139.891 622.781 139.548" stroke="#011A07" stroke-width="4" stroke-linecap="round" stroke-linejoin="round"/>
<path d="M26.9235 80.136C25.6082 81.5566 24.3704 82.8352 23.2099 83.9717C22.1267 85.0134 21.0049 85.9132 19.8444 86.6708C18.684 87.3338 17.4848 87.8547 16.2469 88.2335C15.0864 88.6123 13.7712 88.8017 12.3012 88.8017C10.135 88.8017 8.27819 88.1388 6.73086 86.8129C5.26091 85.3923 3.98436 83.6402 2.90123 81.5566C1.89547 79.3783 1.16049 77.1054 0.696296 74.7377C0.232099 72.2753 0 69.9076 0 67.6346C0 65.3616 0.154733 62.9466 0.464198 60.3895C0.851029 57.7377 1.43128 55.1332 2.20494 52.5761C2.9786 49.9243 3.907 47.4146 4.99012 45.0469C6.15062 42.5845 7.46584 40.4536 8.9358 38.6541C10.4058 36.8547 12.0691 35.4341 13.9259 34.3923C15.7827 33.2558 17.7942 32.6875 19.9605 32.6875C22.1267 32.6875 24.0996 33.1137 25.879 33.9661C27.6584 34.8185 29.1671 36.0497 30.4049 37.6597C31.7202 39.175 32.7259 41.1165 33.4222 43.4842C34.1959 45.7572 34.5827 48.3143 34.5827 51.1555C34.5827 55.8909 34.3893 60.6263 34.0025 65.3616C33.693 70.0023 33.3449 74.6903 32.958 79.4257C32.5712 84.0664 32.1844 88.7544 31.7975 93.4898C31.4881 98.2251 31.3333 102.961 31.3333 107.696C30.8691 111.105 31.1399 114.231 32.1457 117.072C33.1514 119.913 34.4667 122.376 36.0914 124.459C37.7934 126.637 39.6115 128.342 41.5457 129.573C43.5572 130.899 45.3753 131.704 47 131.988C46.6905 132.272 46.1877 132.557 45.4914 132.841C44.8724 133.125 44.2148 133.409 43.5185 133.693C42.8222 133.977 42.1259 134.214 41.4296 134.403C40.8107 134.593 40.4239 134.688 40.2691 134.688C38.7218 134.498 37.1745 133.93 35.6272 132.983C34.0798 132.036 32.6486 130.805 31.3333 129.289C30.0955 127.774 29.051 126.069 28.2 124.175C27.349 122.281 26.9235 120.339 26.9235 118.35V80.136ZM4.52593 66.3561C4.52593 67.5873 4.68066 69.1499 4.99012 71.0441C5.29959 72.9382 5.76379 74.785 6.38272 76.5845C7.00165 78.2892 7.81399 79.8045 8.81975 81.1304C9.82551 82.3616 11.0247 82.9772 12.4173 82.9772C15.0477 82.9772 17.4074 82.0775 19.4963 80.2781C21.6626 78.4786 23.442 76.2056 24.8346 73.4591C26.3045 70.7126 27.3877 67.7767 28.084 64.6513C28.8576 61.4313 29.2444 58.448 29.2444 55.7015C29.2444 54.0914 29.1284 52.292 28.8963 50.3031C28.6642 48.2196 28.1613 46.2781 27.3877 44.4786C26.6914 42.5845 25.7243 41.0218 24.4864 39.7906C23.2486 38.4647 21.6626 37.8017 19.7284 37.8017C18.1811 37.8017 16.7111 38.37 15.3185 39.5065C14.0033 40.643 12.7654 42.1109 11.6049 43.9104C10.5218 45.7098 9.51605 47.6987 8.58765 49.8769C7.73663 52.0552 7.00165 54.2335 6.38272 56.4118C5.84115 58.4953 5.37695 60.4368 4.99012 62.2363C4.68066 64.0357 4.52593 65.409 4.52593 66.3561Z" fill="#011A07"/>
<path d="M751.781 19.8922C751.93 19.5778 752.477 18.6131 752.906 17.9071C753.399 17.0955 753.948 15.9897 754.601 15.1762C755.796 14.1016 756.677 13.6506 758.845 13.1139C759.49 13.0224 760.125 13.0114 760.778 13" stroke="#011A07" stroke-width="2" stroke-linecap="round" stroke-linejoin="round"/>
<path d="M738.787 27.9819C738.046 26.7156 735.956 23.5468 734.186 22.0584C731.315 19.6455 728.788 19.7756 727.475 19.5379C726.828 19.4872 726.221 19.4093 725.564 19.2798C725.189 19.221 724.73 19.1761 723.781 19" stroke="#011A07" stroke-width="2" stroke-linecap="round" stroke-linejoin="round"/>
<path d="M709.453 124.498C708.938 124.036 707.169 122.603 705.854 121.433C704.148 119.915 702.795 118.73 701.237 118.009C699.14 117.45 695.858 117.193 692.609 118.051C692.005 118.261 691.689 118.347 690.656 118.583" stroke="#011A07" stroke-width="4" stroke-linecap="round" stroke-linejoin="round"/>
<path d="M621.744 139.508C622.24 139.508 623.684 139.451 624.59 139.344C625.481 139.239 626.424 139.006 628.159 138.659C630.178 138.255 631.204 138.273 633.899 137.737C635.063 137.505 636.697 137.072 638.546 136.59C640.395 136.108 642.401 135.555 647.041 134.09C651.681 132.625 658.895 130.264 663.421 128.751C669.582 126.691 671.596 125.856 672.587 125.429C675.198 124.305 676.414 124.066 677.995 123.334C679.532 122.621 681.848 121.613 683.028 121.102C684.161 120.611 685.617 120.199 686.746 119.868C687.657 119.601 688.695 119.442 689.606 119.221C690.534 118.996 691.495 118.936 692.777 118.505C694.672 117.868 695.733 117.68 696.887 117.594C698.29 117.489 699.888 117.644 700.355 117.964C700.555 118.13 700.681 118.302 700.811 118.479" stroke="#011A07" stroke-width="4" stroke-linecap="round" stroke-linejoin="round"/>
<path d="M727.028 41.8351C727.067 42.0565 727.368 42.8353 727.76 43.6025C728.349 44.7549 728.8 45.3932 729.455 46.0082C730.044 46.5607 733.804 46.477 736.442 46.1971C737.68 46.0657 738.284 45.2406 740.141 44.0538C741.629 43.1024 742.896 41.3105 743.428 40.4095C743.678 38.4862 743.601 36.0171 743.415 34.8213C743.307 34.2588 743.17 33.7863 743.029 33.2995" stroke="#011A07" stroke-width="4" stroke-linecap="round" stroke-linejoin="round"/>
<path d="M93.8142 130.75C95.4761 130.325 103.203 127.241 109.617 124.353C116.331 120.396 119.234 118.119 120.843 116.529C121.569 115.712 122.114 114.873 123.3 113.133" stroke="#011A07" stroke-width="4" stroke-linecap="round" stroke-linejoin="round"/>
<path d="M453.535 135.892C455.173 135.481 460.884 133.15 466.227 130.586C471.04 127.599 474.305 125.413 476.308 123.742C477.251 122.931 478.046 122.192 479 121.191" stroke="#011A07" stroke-width="4" stroke-linecap="round" stroke-linejoin="round"/>
<path d="M542.354 128.02C543.768 128.021 549.041 128.638 557.798 131.723C563.378 133.688 568.052 135.036 571.863 136.983C576.098 139.226 580.676 141.624 585.383 144.353C586.53 144.896 587.571 145.163 589.127 145.683" stroke="#011A07" stroke-width="4" stroke-linecap="round" stroke-linejoin="round"/>
<path d="M222.19 125.643C226.539 125.643 236.964 126.006 242.195 126.843C246.706 127.565 250.985 128.577 255.529 130.146C261.976 133.109 268.02 136.194 270.072 137.171C271.128 137.695 272.214 138.278 275.803 140.006" stroke="#011A07" stroke-width="4" stroke-linecap="round" stroke-linejoin="round"/>
<path d="M720.201 13.5758C720.215 13.5758 720.346 13.7286 720.662 13.8744C721.103 14.0772 721.628 13.2363 722.022 12.9244C722.199 13.1267 722.232 13.5774 722.288 14.0041C722.344 14.219 722.456 14.4305 722.571 14.7806" stroke="#055217" stroke-width="4" stroke-linecap="round" stroke-linejoin="round"/>
<path d="M723.843 13.3956C724.07 13.6134 724.983 14.1144 725.899 14.2057C727.048 14.3202 729.465 15.0408 733.185 16.7377C734.453 17.3159 734.99 17.9964 735.595 18.6635C735.729 18.8468 735.833 19.0395 735.935 19.2227C736.037 19.4058 736.135 19.5735 736.393 20.1682" stroke="#055217" stroke-width="4" stroke-linecap="round" stroke-linejoin="round"/>
<path d="M722.254 17.435C723.326 17.435 725.841 17.5128 727.143 17.8841C729.018 18.4188 729.807 18.8348 730.65 18.9801C731.494 19.1256 732.625 19.3588 733.709 19.7648C733.932 19.8679 734.119 19.9677 734.376 20.1648C734.633 20.3619 734.954 20.6532 735.771 21.2559" stroke="#055217" stroke-linecap="round" stroke-linejoin="round"/>
<path d="M735.725 21.2559C735.985 21.4271 736.754 22.0332 737.334 22.7301C737.769 23.4657 737.96 24.0943 738.056 24.4697C738.122 24.6552 738.222 24.8303 738.488 25.2795" stroke="#055217" stroke-linecap="round" stroke-linejoin="round"/>
<path d="M738.095 20.8764C738.096 21.1547 738.164 22.0004 738.246 22.4276C738.327 22.8549 738.412 23.3279 738.453 23.7607C738.502 24.267 738.574 24.8942 738.659 25.4513C738.691 25.66 738.699 25.7185 738.706 25.7656C738.714 25.8128 738.722 25.8469 738.702 25.7689C738.635 25.5002 738.558 25.2274 738.446 24.9868C738.085 24.2149 737.828 23.9638 737.656 23.7698C737.482 23.5736 737.232 23.2097 736.796 22.6955C736.633 22.5032 736.352 22.2307 735.883 21.7706C735.625 21.5168 735.299 21.2482 735.013 21.0223C734.496 20.6136 734.094 20.3457 733.863 20.1696C733.653 20.0101 733.223 19.7579 732.828 19.561C732.066 19.3078 731.956 19.2764 731.87 19.2631C731.824 19.255 731.777 19.2442 731.658 19.1632" stroke="#055217" stroke-linecap="round" stroke-linejoin="round"/>
<path d="M737.092 20.9948C737.1 21.0507 737.126 21.2235 737.214 21.4034C737.341 21.6027 737.499 21.8084 737.625 21.9473C737.676 22.0055 737.698 22.0387 737.744 22.1441" stroke="#055217" stroke-linecap="round" stroke-linejoin="round"/>
<path d="M728.368 18.624C728.277 18.6222 727.821 18.5459 727.236 18.3859C726.486 18.1805 725.885 18.1161 725.63 18.086C725.248 18.0409 724.617 17.9112 723.96 17.7609C723.612 17.6813 723.064 17.6508 722.722 17.6287C721.937 17.5779 724.295 17.6363 724.553 17.658C724.975 17.6934 725.776 17.7909 726.664 17.9365C727.605 18.0908 728.363 18.3337 728.746 18.4366C729.025 18.5117 729.248 18.5503 729.517 18.6513C729.537 18.676 729.48 18.6888 729.395 18.6953C729.31 18.7019 729.198 18.7019 729.082 18.7019" stroke="#055217" stroke-linecap="round" stroke-linejoin="round"/>
<path d="M719.373 14.3857C719.373 14.3894 719.379 14.9355 719.437 15.9273C719.464 16.3772 719.591 16.7092 719.743 17.1116C719.895 17.514 720.095 17.9743 720.378 18.4625C720.968 19.4834 721.441 20.0223 721.665 20.1991C722.104 20.5446 722.779 20.8934 723.466 21.186C723.786 21.3221 724.071 21.3725 725.027 21.5529C725.982 21.7334 727.607 22.027 728.501 22.1942C729.512 22.3834 729.801 22.462 730.428 22.6201C730.886 22.7353 731.618 22.9519 732.14 23.1244C733.289 23.5951 733.588 23.9349 733.838 24.2044C733.892 24.2516 733.955 24.3029 734.076 24.3936" stroke="#055217" stroke-linecap="round" stroke-linejoin="round"/>
<path d="M733.794 24.2546C733.883 24.2546 734.384 24.4593 734.624 24.6283C734.743 24.7125 735.029 24.9564 735.299 25.1854C735.466 25.3265 735.724 25.4527 735.877 25.5642C735.963 25.6273 735.713 25.3598 735.221 24.8499C734.811 24.4247 734.693 24.2489 734.576 24.1076C734.482 23.9946 734.188 23.8137 733.604 23.3409C733.451 23.2174 733.364 23.1451 733.178 23.0052C732.511 22.5053 732.225 22.3125 731.965 22.1576C731.719 22.0112 731.3 21.8457 730.911 21.676C730.741 21.6021 730.668 21.5802 730.488 21.5195C730.118 21.3945 729.62 21.2773 729.206 21.1956C729.046 21.164 728.987 21.1595 728.282 21.0461C727.578 20.9328 726.23 20.7126 725.367 20.5652C724.503 20.4179 724.165 20.3501 723.965 20.3071C723.765 20.2642 723.713 20.2482 723.6 20.1879" stroke="#055217" stroke-linecap="round" stroke-linejoin="round"/>
<path d="M723.628 20.6066C723.677 20.6066 724.044 20.6651 724.662 20.8071C725.021 20.8898 725.474 20.9972 725.946 21.0789C726.418 21.1607 726.897 21.2144 727.519 21.2965C728.141 21.3786 728.893 21.4874 729.324 21.5585C729.756 21.6296 729.845 21.6597 729.949 21.7078C730.054 21.7559 730.171 21.8211 730.343 21.9207" stroke="#055217" stroke-linecap="round" stroke-linejoin="round"/>
<path d="M730.37 21.9382C730.371 21.9382 730.372 21.9382 730.403 21.9383C730.435 21.9383 730.496 21.9384 730.551 21.95C730.606 21.9615 730.651 21.9845 730.772 22.0568" stroke="#055217" stroke-linecap="round" stroke-linejoin="round"/>
<path d="M734.419 25.0419C734.417 25.0419 734.244 25.0406 733.967 25.0355C733.826 25.0329 733.605 24.9732 732.826 24.8816C732.234 24.812 731.236 24.7909 730.419 24.7701C729.603 24.7494 728.997 24.7539 728.595 24.743C728.193 24.7322 728.013 24.7058 727.524 24.5784C727.034 24.451 726.238 24.2234 725.653 24.0047C725.068 23.786 724.717 23.5831 724.414 23.3739C724.111 23.1647 723.865 22.9553 723.566 22.6446C723.267 22.3338 722.92 21.9281 722.73 21.6951C722.54 21.4622 722.516 21.4142 722.556 21.4127C722.596 21.4111 722.701 21.4573 722.964 21.6154C723.228 21.7734 723.646 22.0419 723.94 22.2091C724.234 22.3763 724.391 22.4341 724.983 22.54C725.574 22.6459 726.595 22.798 727.628 22.8838C728.661 22.9695 729.675 22.9842 730.383 23.0229C731.091 23.0615 731.463 23.1237 731.745 23.1869C732.212 23.2917 732.509 23.4441 732.727 23.5818C732.924 23.7064 733.125 23.8661 733.294 23.9775C733.344 24.0102 733.295 24.0268 732.981 23.9753C732.667 23.9237 732.083 23.8118 730.969 23.7035C729.855 23.5952 728.23 23.494 727.138 23.3762C726.046 23.2584 725.537 23.1271 725.381 23.1185C725.258 23.1116 725.898 23.4433 726.429 23.6218C726.718 23.7187 727.061 23.7789 727.957 23.8582C728.852 23.9375 730.294 24.0215 731.074 24.0705C731.855 24.1196 731.93 24.1313 730.912 23.9738C729.895 23.8164 727.783 23.4895 726.541 23.2765C725.3 23.0635 724.994 22.9744 724.785 22.9076C724.576 22.8408 724.474 22.799 724.414 22.7719" stroke="#055217" stroke-linecap="round" stroke-linejoin="round"/>
<path d="M735.522 25.2881C735.422 25.2881 735.168 25.2793 734.952 25.2329C734.863 25.2137 734.783 25.2006 734.639 25.1671C734.367 25.1038 733.954 25.0344 733.257 24.9545C732.799 24.902 732.125 24.8937 731.71 24.8881C731.162 24.8806 730.828 24.9257 730.199 25.0005C729.765 25.0621 729.099 25.1717 728.664 25.2329C728.228 25.2942 728.044 25.3037 727.848 25.3589" stroke="#055217" stroke-linecap="round" stroke-linejoin="round"/>
<path d="M728.803 25.1563C728.799 25.1563 728.491 25.1563 727.99 25.1642C727.714 25.1685 727.226 25.2069 726.586 25.2083C726.195 25.2091 725.911 25.164 725.427 25.1355C725.16 25.1198 724.917 25.0151 724.367 24.6477C724.1 24.4692 723.741 24.1304 723.129 23.3701C722.517 22.6098 721.677 21.4176 721.261 20.8128C720.844 20.208 720.877 20.2268 721.274 20.5832C721.672 20.9396 722.434 21.6332 723.021 22.2208C723.608 22.8083 723.997 23.2688 724.321 23.6133C724.645 23.9578 724.893 24.1724 725.123 24.3395C725.542 24.6436 725.811 24.7528 725.935 24.7894C726.017 24.8135 726.142 24.831 725.628 24.1929C725.114 23.5548 723.958 22.256 723.111 21.2327C722.264 20.2093 721.76 19.5009 721.442 19.0278C720.987 18.3514 720.871 18.0645 720.836 17.8167C720.705 16.8965 720.79 16.7227 720.843 16.5106C720.86 16.4443 720.903 16.3729 720.924 16.3524C720.948 16.3301 720.934 16.4919 720.917 16.7581C720.906 16.9216 721.11 17.3044 721.67 18.0513C721.885 18.3376 722.044 18.4447 722.094 18.5002C722.153 18.5641 722.33 18.9804 722.603 19.5881C722.757 19.929 722.877 20.0298 722.957 20.0695C723.074 20.128 723.25 20.1516 723.332 20.1431C723.836 20.0911 722.571 19.5474 722.501 19.1948C722.429 18.8307 722.493 18.5684 722.518 18.5057C722.59 18.3231 722.816 18.1541 723.11 18.0285C723.574 17.831 723.941 17.7928 724.142 17.7895C724.627 17.7818 725.208 17.8403 725.654 17.9098C725.839 17.9388 725.945 17.9374 726.395 17.9905C726.844 18.0435 727.636 18.1466 728.395 18.2475C729.154 18.3485 729.856 18.4442 730.58 18.5428" stroke="#055217" stroke-linecap="round" stroke-linejoin="round"/>
<path d="M733.117 18.26C733.11 18.26 732.768 18.2524 731.963 18.1812C731.494 18.1398 730.911 17.9986 730.245 17.8045C729.578 17.6104 728.848 17.3449 727.776 17.0788C726.705 16.8127 725.315 16.5542 724.441 16.4086C723.568 16.2629 723.253 16.2381 723.058 16.2185C722.864 16.1989 722.799 16.1854 722.794 16.1717C722.789 16.1581 722.845 16.1447 723.089 16.1373C723.334 16.1298 723.764 16.1287 724.965 16.4331C726.167 16.7375 728.125 17.3475 729.551 17.7819C730.977 18.2163 731.812 18.4566 732.327 18.6247C732.842 18.7928 733.012 18.8813 733.055 18.9107C733.098 18.9401 733.009 18.9078 732.376 18.6213C731.742 18.3348 730.566 17.7951 729.723 17.443C728.88 17.0909 728.405 16.9428 727.619 16.7993C726.833 16.6559 725.751 16.5215 725.049 16.4501C724.347 16.3787 724.058 16.3743 723.557 16.4462C723.056 16.518 722.351 16.6661 721.969 16.7445C721.587 16.8228 721.548 16.8269 721.502 16.8291C721.457 16.8313 721.406 16.8314 721.879 16.8135C722.351 16.7955 723.349 16.7595 724.057 16.757C724.765 16.7546 725.154 16.7869 725.338 16.806C725.522 16.8251 725.49 16.8299 724.955 16.8265C724.42 16.8231 723.383 16.8113 722.817 16.8011C722.185 16.7897 722.02 16.7481 721.69 16.624C721.081 16.3951 720.526 16.0535 720.295 16.2349C720.051 16.4267 720.408 17.292 720.496 18.0268C720.585 18.7616 720.614 19.46 720.64 19.8641C720.683 20.5232 720.826 20.7237 720.875 20.8168C720.988 21.0334 720.403 20.2272 720.174 19.6636C720.041 19.3336 719.952 18.8844 719.868 18.2978C719.784 17.7112 719.728 16.9931 719.702 16.5814C719.655 15.8427 719.832 15.4917 719.852 15.4843C720.064 15.4066 719.79 16.1479 719.696 16.8721C719.644 17.2754 719.648 17.7587 719.67 18.1314C719.706 18.7571 719.883 19.1879 720.056 19.5475C720.15 19.7295 720.256 19.9104 720.466 20.2108C720.676 20.5113 720.987 20.9259 721.328 21.3752" stroke="#055217" stroke-linecap="round" stroke-linejoin="round"/>
<path d="M721.328 21.3752C721.328 21.4329 721.419 21.7844 721.542 22.0284C721.647 22.2354 721.951 22.5955 722.164 22.8872C722.309 23.0871 722.543 23.3546 722.89 23.7272C723.025 23.8727 723.131 23.9872 723.354 24.1987C723.805 24.6251 724.181 24.8898 724.277 24.9385C724.427 25.0146 724.998 25.1571 725.617 25.3111C725.905 25.3829 726.205 25.4534 726.642 25.4852C727.367 25.538 727.895 25.4944 728.127 25.4364C728.513 25.3401 729.029 25.0861 729.494 24.8576C729.666 24.7753 729.709 24.7613 730.031 24.6967C730.353 24.6321 730.952 24.5173 731.569 24.399" stroke="#055217" stroke-linecap="round" stroke-linejoin="round"/>
<path d="M721.74 22.3651C721.731 22.3299 721.679 22.2126 721.466 21.9348C721.274 21.6846 721.063 21.5888 720.734 21.1373C720.511 20.8308 720.315 20.5449 720.123 20.3241C719.94 20.1138 719.762 19.8188 719.404 19.2019C719.148 18.7604 718.776 18.0368 718.532 17.554C718.288 17.0712 718.191 16.8458 718.1 16.5871C717.825 15.6638 717.763 15.4307 717.718 15.3275C717.697 15.2831 717.681 15.2549 717.624 15.1809" stroke="#055217" stroke-linecap="round" stroke-linejoin="round"/>
<path d="M715.576 7.36422C715.58 7.40516 715.684 7.70266 715.937 8.47716C716.001 8.67282 716.03 8.83279 716.152 9.35829C716.274 9.88379 716.48 10.7724 716.614 11.4122C716.747 12.0521 716.801 12.4163 716.95 13.0688C717.098 13.7214 717.34 14.6512 717.51 15.231C717.742 16.0217 717.905 16.279 718.005 16.4143C718.333 16.7592 718.642 16.9815 718.945 17.0807C719.046 17.1029 719.174 17.1226 719.392 17.1461" stroke="#055217" stroke-linecap="round" stroke-linejoin="round"/>
<path d="M719.437 18.1339C719.437 18.1363 719.433 17.825 719.42 17.2897C719.414 17.0669 719.392 16.9438 719.234 16.2912C719.076 15.6386 718.777 14.4605 718.485 13.4008C718.192 12.3411 717.916 11.4356 717.716 10.7699C717.517 10.1043 717.404 9.706 717.309 9.42792C717.074 8.73692 716.833 8.53342 716.722 8.41265C716.608 8.28928 716.495 8.20721 716.457 8.22189C716.422 8.23534 716.452 8.34981 716.688 9.38611C716.923 10.4224 717.388 12.3998 717.738 13.7368C718.087 15.0739 718.308 15.7107 718.429 16.0524C718.55 16.394 718.566 16.4213 718.582 16.4494" stroke="#055217" stroke-linecap="round" stroke-linejoin="round"/>
<path d="M715.741 7.40158C715.775 7.41779 715.896 7.49948 716.018 7.58889C716.169 7.70035 716.351 7.83588 716.86 8.17893C717.235 8.43144 717.86 8.82242 718.679 9.19697C719.498 9.57152 720.497 9.91249 721.252 10.1405C722.006 10.3684 722.487 10.4731 723.179 10.5463C723.871 10.6195 724.76 10.6582 725.696 10.6508C726.631 10.6434 727.586 10.5888 728.575 10.5291" stroke="#055217" stroke-linecap="round" stroke-linejoin="round"/>
<path d="M727.654 10.5712C727.84 10.5712 728.473 10.5416 728.772 10.5131C728.878 10.503 729.057 10.4738 729.839 10.4234C730.622 10.373 732.004 10.299 732.741 10.265C733.529 10.2287 733.764 10.295 734.092 10.3901C734.536 10.5187 734.817 10.7778 735.12 11.1156C735.282 11.2955 735.509 11.6663 735.772 12.0742C736.035 12.482 736.307 12.9321 736.544 13.4136C736.781 13.8951 736.973 14.3944 737.179 15.0286C737.384 15.6628 737.596 16.4168 737.722 16.9384C737.981 18.0225 737.978 18.1741 738.066 18.2909C738.086 18.3186 738.104 18.3464 738.129 18.3725C738.153 18.3987 738.184 18.4225 738.296 18.4705" stroke="#055217" stroke-linecap="round" stroke-linejoin="round"/>
<path d="M738.002 17.9828C738.002 17.9912 738.002 18.0805 738.009 18.2267C738.017 18.288 738.031 18.3231 738.054 18.375C738.077 18.4269 738.107 18.4947 738.138 18.5645" stroke="#055217" stroke-linecap="round" stroke-linejoin="round"/>
<path d="M738.034 17.7212C738.035 17.805 738.053 18.0609 738.155 18.358C738.19 18.462 738.255 18.5824 738.3 18.7027C738.345 18.823 738.375 18.9368 738.46 19.9178C738.546 20.8989 738.686 22.7438 738.845 24.6693" stroke="#055217" stroke-linecap="round" stroke-linejoin="round"/>
<path d="M738.845 24.6905C738.847 24.8047 738.899 25.292 738.937 25.5997C738.945 26.1039 738.964 26.2845 738.979 26.3538C738.987 26.3874 738.995 26.4179 739.007 26.4677" stroke="#055217" stroke-linecap="round" stroke-linejoin="round"/>
<path d="M736.996 17.9915C736.994 17.989 736.962 17.9565 736.787 17.7362C736.639 17.5496 736.382 17.2016 735.887 16.3922C735.392 15.5828 734.671 14.3202 734.201 13.4233C733.731 12.5265 733.534 12.0337 733.426 11.7662C733.306 11.4702 733.226 11.3227 733.173 11.1487C733.157 11.0974 733.258 11.114 733.323 11.1349C733.439 11.1724 733.713 11.3973 734.092 11.7438C734.251 11.8894 734.321 11.9967 734.55 12.4476C734.78 12.8985 735.161 13.6957 735.431 14.3023C735.701 14.909 735.849 15.3009 736.087 15.7743C736.326 16.2476 736.65 16.7904 736.831 17.0782C737.013 17.366 737.042 17.3823 737.073 17.3904C737.103 17.3986 737.134 17.3981 737.161 17.3813C737.301 17.2929 737.291 17.0465 737.302 16.8873C737.315 16.6849 737.077 16.2771 736.686 15.6543C736.475 15.3174 736.218 14.9504 735.902 14.4441C735.585 13.9377 735.212 13.3062 734.955 12.8155C734.697 12.3247 734.567 11.9939 734.457 11.7566C734.174 11.1481 733.911 10.9723 733.786 10.8832C733.777 10.8769 734.049 11.1495 734.498 11.5961C734.714 11.8103 734.878 12.0247 735.024 12.2603C735.171 12.4959 735.287 12.7527 735.459 13.0464C735.631 13.34 735.856 13.6628 735.947 13.8209C736.037 13.9789 735.986 13.9624 735.159 13.9052C734.332 13.8481 732.73 13.7507 731.456 13.7438C730.181 13.7369 729.283 13.8233 728.76 13.8833C728.236 13.9433 728.114 13.9742 728.075 13.9965C728.035 14.0189 728.082 14.0316 728.531 14.0554C728.98 14.0793 729.831 14.1138 730.784 14.2365C731.736 14.3593 732.764 14.5692 733.415 14.6792C734.646 14.8875 734.907 14.7186 734.915 14.7027C734.964 14.6053 734.683 14.69 734.606 14.6712C734.405 14.6226 734.252 14.3431 734.051 13.8823C733.946 13.6408 733.829 13.2109 733.691 12.8671C733.447 12.2583 733.212 11.9292 733.077 11.7723C732.856 11.5155 732.598 11.4364 732.003 11.3612C731.61 11.3115 730.874 11.3543 730.145 11.4158C729.415 11.4773 728.711 11.5995 728.227 11.7033C727.743 11.8071 727.5 11.8888 727.419 11.9394C727.339 11.9899 727.428 12.0069 728.221 11.9654C729.013 11.9238 730.507 11.8232 731.425 11.7129C732.344 11.6026 732.643 11.4857 732.852 11.3937C733.177 11.2505 733.321 11.1403 733.364 11.0734C733.384 11.0436 733.354 11.0031 733.316 10.9735C733.132 10.8292 732.573 10.8594 731.81 10.8777C731.439 10.8866 731.103 10.932 730.677 10.9622C730.251 10.9925 729.747 11.0157 729.108 11.1165C728.469 11.2174 727.711 11.3951 726.926 11.5365C726.142 11.6779 725.354 11.7776 724.918 11.829C724.423 11.8874 724.31 11.8629 724.136 11.7841C723.809 11.6359 723.487 11.4636 723.45 11.3756C723.41 11.2811 723.866 11.3008 724.452 11.2847C725.039 11.2686 725.881 11.2713 726.331 11.278C726.815 11.2852 726.937 11.3525 727.24 11.5328C727.458 11.6624 727.796 11.8874 728.041 12.0324C728.287 12.1774 728.428 12.2401 729.321 12.4324C730.215 12.6247 731.857 12.9445 732.746 13.1118C733.635 13.279 733.72 13.2838 733.751 13.2661C734.046 13.0942 733.01 12.4513 732.682 12.1969C732.561 12.1026 732.509 12.1081 732.209 12.3679C731.91 12.6277 731.359 13.149 731.047 13.4365C730.602 13.847 730.464 13.879 730.402 13.8759C730.37 13.8742 730.344 13.8283 730.329 13.7822C730.26 13.5581 730.432 13.2337 730.627 12.9126C730.772 12.6717 730.996 12.5083 731.137 12.4002C731.198 12.3543 731.238 12.3319 730.867 12.5796C730.496 12.8273 729.713 13.3471 729.322 13.5923C728.932 13.8375 728.958 13.7923 729.214 13.5525C729.471 13.3127 729.958 12.8797 730.274 12.6135C730.71 12.2467 730.887 12.1575 730.95 12.1305C731.018 12.1015 731.12 12.101 731.242 12.1147C731.53 12.1472 731.691 12.388 731.697 12.4134C731.717 12.488 731.417 12.3984 730.683 12.5038C730.09 12.589 729.056 12.7949 728.325 12.8966C727.594 12.9983 727.199 13.004 726.954 12.9964C726.622 12.9861 726.449 12.9111 726.182 12.7705C725.997 12.6732 725.731 12.4895 725.897 12.4001C726.063 12.3108 726.674 12.3127 727.004 12.3168C727.335 12.3209 727.366 12.3271 727.408 12.3543" stroke="#055217" stroke-linecap="round" stroke-linejoin="round"/>
<path d="M717.399 8.95416C717.4 8.95416 717.401 8.95416 717.846 9.18574C718.292 9.41731 719.181 9.88047 719.781 10.166C720.381 10.4515 720.664 10.5453 721.228 10.6522C721.793 10.7591 722.631 10.8763 723.079 10.9366C723.528 10.9969 723.562 10.9969 722.737 10.9027C721.912 10.8084 720.228 10.6199 719.287 10.5019C718.345 10.3839 718.196 10.3422 718.074 10.3009C717.725 10.1835 717.543 10.0144 717.449 9.89598C717.441 9.88526 717.506 9.90361 717.914 10.1226C718.322 10.3416 719.093 10.7648 719.589 11.0183C720.084 11.2719 720.282 11.3431 720.549 11.4062C720.816 11.4693 721.146 11.5223 721.485 11.5496C721.824 11.5769 722.163 11.5769 722.297 11.5664C722.432 11.5558 722.352 11.5347 721.933 11.4558C721.513 11.377 720.757 11.2412 720.172 11.104C719.587 10.9668 719.197 10.8323 718.937 10.7321C718.677 10.6319 718.559 10.57 718.509 10.5671C718.458 10.5641 718.479 10.6219 718.662 10.9532C718.845 11.2845 719.189 11.8875 719.305 12.1141C719.446 12.389 718.822 11.6524 718.699 11.5961C718.65 11.5741 718.682 11.8975 718.742 12.201C718.801 12.5045 719.134 11.5462 719.253 11.4813C719.419 11.5049 719.609 11.5685 719.964 11.6162C720.069 11.6228 720.178 11.623 720.282 11.6487" stroke="#055217" stroke-linecap="round" stroke-linejoin="round"/>
<path d="M752.62 16.4294C752.614 16.3984 752.515 16.0621 752.364 15.5963C752.302 15.4053 752.289 15.3005 752.274 15.146C752.26 14.9915 752.249 14.789 752.225 14.3897C752.202 13.9905 752.165 13.4007 752.162 13.0248C752.158 12.504 752.246 12.2955 752.339 12.1118C752.501 11.7904 752.739 11.5274 752.887 11.3811C752.979 11.3026 753.057 11.2618 753.139 11.2304C753.176 11.2176 753.204 11.2111 753.24 11.2043" stroke="#055217" stroke-linecap="round" stroke-linejoin="round"/>
<path d="M753.24 11.2043C753.246 11.1795 753.308 11.0781 753.419 10.938C753.491 10.848 753.571 10.7805 753.833 10.5632C754.065 10.3714 754.495 10.0108 754.873 9.72887C755.251 9.44692 755.563 9.25374 756.032 9.01805C756.502 8.78235 757.121 8.51001 757.516 8.35284C757.912 8.19567 758.066 8.16193 758.267 8.12728C758.468 8.09262 758.711 8.05807 758.988 8.01439" stroke="#055217" stroke-linecap="round" stroke-linejoin="round"/>
<path d="M758.988 8.01439C759.013 8.01439 759.099 8.00865 759.572 7.88958C759.962 7.79144 760.71 7.61072 761.326 7.47059C761.942 7.33045 762.404 7.23823 762.797 7.16919C763.19 7.10015 763.5 7.05709 763.681 7.02948C764.129 6.9609 764.463 6.83348 764.426 6.85048C764.346 6.88672 764.238 7.11647 764.099 7.65108C764.051 7.83365 764.042 8.07618 764.033 8.39118C764.024 8.70618 764.032 9.09003 764.077 9.47933C764.123 9.86863 764.205 10.2517 764.31 10.6263C764.415 11.0009 764.541 11.3553 764.695 11.7328C764.85 12.1103 765.031 12.5002 765.168 12.8331C765.305 13.1661 765.394 13.4304 765.444 13.6038C765.494 13.7771 765.503 13.8516 765.507 13.9606C765.512 14.0696 765.512 14.2107 765.512 14.3562" stroke="#055217" stroke-linecap="round" stroke-linejoin="round"/>
<path d="M752.833 16.508C752.833 16.4153 752.883 15.9689 752.984 15.599C753.046 15.375 753.192 15.1661 753.336 14.962C753.414 14.8513 753.515 14.7357 753.652 14.5902C753.789 14.4446 753.962 14.2751 754.159 14.1109C754.356 13.9466 754.572 13.7928 754.97 13.5755C755.367 13.3581 755.94 13.082 756.351 12.8985C756.763 12.7151 756.998 12.6328 757.25 12.5565C757.502 12.4802 757.764 12.4125 757.949 12.3565C758.134 12.3005 758.234 12.2583 758.3 12.228C758.366 12.1976 758.395 12.1805 758.45 12.1501" stroke="#055217" stroke-linecap="round" stroke-linejoin="round"/>
<path d="M758.45 12.1501C758.478 12.1493 758.938 12.0231 759.365 11.9186C759.45 11.898 759.602 11.8732 759.949 11.8429C760.174 11.8233 760.498 11.8275 760.719 11.8309C761.235 11.839 761.434 11.952 761.601 12.0762C761.854 12.2646 761.922 12.6075 761.967 12.802C762.02 13.0328 761.938 13.1179 761.851 13.3045C761.811 13.3893 761.717 13.4744 761.575 13.5949C761.496 13.6625 761.386 13.7247 760.811 13.9208C760.235 14.1169 759.194 14.4402 758.467 14.6959C757.741 14.9516 757.36 15.1299 756.923 15.3498" stroke="#055217" stroke-linecap="round" stroke-linejoin="round"/>
<path d="M759.126 14.5226C759.124 14.5226 758.961 14.5238 758.618 14.5607C758.435 14.5803 758.244 14.666 758.031 14.7543C757.818 14.8426 757.592 14.9472 757.383 15.0365C757.174 15.1258 756.991 15.1965 756.838 15.2627C756.685 15.3288 756.568 15.3881 756.386 15.5145C756.204 15.6409 755.96 15.8326 755.718 16.0685C755.477 16.3044 755.246 16.5788 755.068 16.8249C754.889 17.071 754.77 17.2806 754.642 17.4926C754.246 18.1507 754.178 18.2193 754.115 18.2947C754.078 18.3358 754.01 18.4099 753.925 18.5037C753.885 18.5453 753.855 18.5747 753.805 18.6278" stroke="#055217" stroke-linecap="round" stroke-linejoin="round"/>
<path d="M753.805 18.5722C753.806 18.5722 753.834 18.5667 754.227 18.4367C754.594 18.3152 755.296 18.0685 756.568 17.6699C757.84 17.2712 759.659 16.725 760.67 16.4146C761.681 16.1043 761.829 16.0463 761.925 16.0126C762.138 15.9372 762.319 15.9335 762.444 15.9206C762.47 15.9171 762.492 15.9104 762.541 15.8868C762.591 15.8633 762.669 15.8231 762.756 15.7768" stroke="#055217" stroke-linecap="round" stroke-linejoin="round"/>
<path d="M762.756 15.7768C762.821 15.7758 762.961 15.7687 763.356 15.5731C763.732 15.3868 764.455 15.0062 764.846 14.7995C765.237 14.5929 765.272 14.5674 765.186 14.6107C765.101 14.6541 764.894 14.7671 764.541 14.9385C764.188 15.1099 763.695 15.3362 763.411 15.4729C763.064 15.6402 762.973 15.7254 762.905 15.7954C762.839 15.8633 762.737 15.9519 762.579 16.0498C762.408 16.155 762.267 16.2187 761.755 16.3743C761.29 16.516 760.401 16.7624 759.739 16.9419C759.077 17.1213 758.668 17.2206 758.376 17.2847C758.084 17.3488 757.922 17.3748 757.739 17.4134C757.357 17.4943 757.038 17.5717 756.843 17.6011C756.765 17.6134 756.73 17.6205 756.674 17.6382C756.618 17.6559 756.542 17.684 756.442 17.7508" stroke="#055217" stroke-linecap="round" stroke-linejoin="round"/>
<path d="M755.674 17.5727C755.688 17.5417 755.774 17.4214 756.049 17.1843C756.262 16.9995 756.661 16.724 757.159 16.4302C757.657 16.1363 758.252 15.8428 759.185 15.4659C760.118 15.089 761.371 14.6377 762.061 14.3957C762.751 14.1537 762.841 14.1348 762.852 14.127C762.863 14.1192 762.794 14.1231 762.173 14.2934C761.551 14.4636 760.381 14.8002 759.486 15.1316C758.592 15.4629 758.01 15.7789 757.579 15.9911C757.148 16.2033 756.886 16.3022 756.743 16.359C756.583 16.4275 756.528 16.4831 756.465 16.5591C756.439 16.5914 756.426 16.6112 756.392 16.6573" stroke="#055217" stroke-linecap="round" stroke-linejoin="round"/>
<path d="M756.392 16.6573C756.338 16.6573 756.173 16.6765 756.084 16.7341C756.068 16.7447 756.086 16.7721 756.101 16.7883C756.172 16.8652 756.365 16.9112 756.835 17.0035C757.114 17.0581 757.328 17.0383 757.538 17.0092C757.682 16.9892 757.9 16.9331 758.523 16.7068C759.145 16.4804 760.163 16.0791 761.06 15.7632C761.957 15.4473 762.701 15.2291 763.192 15.0555C763.683 14.8819 763.899 14.7594 764.079 14.6402C764.26 14.5209 764.401 14.4086 764.482 14.3451C764.564 14.2816 764.583 14.2705 764.616 14.2531" stroke="#055217" stroke-linecap="round" stroke-linejoin="round"/>
<path d="M764.616 14.2531C764.614 14.1685 764.605 13.9706 764.482 13.6427C764.372 13.3515 764.139 12.8179 763.982 12.4782C763.76 12.0022 763.617 11.8384 763.549 11.7645C763.452 11.6581 763.25 11.6964 763.093 11.7445C762.838 11.823 762.699 12.0229 762.596 12.1593C762.52 12.26 762.53 12.521 762.547 12.9764C762.558 13.2422 762.599 13.577 762.636 13.8101C762.691 14.1673 762.758 14.3128 762.782 14.3575C762.794 14.3788 762.809 14.3943 762.835 14.3935C762.901 14.3915 763.101 14.1502 763.363 13.8166C763.558 13.5693 763.601 13.3936 763.631 13.2333C763.662 13.0654 763.559 12.7607 763.448 12.4319C763.418 12.3429 763.398 12.7035 763.397 13.2301C763.396 13.5889 763.488 13.7543 763.512 13.7887C763.633 13.9625 764.033 13.8981 764.067 13.9225C764.084 13.9352 764.087 13.9639 764.088 13.9865C764.088 14.029 763.727 14.066 763.175 14.0893C762.828 14.104 762.682 14.0257 762.56 13.9605C762.391 13.8545 762.307 13.828 762.223 13.823C762.167 13.8214 762.087 13.8214 762.004 13.8214" stroke="#055217" stroke-linecap="round" stroke-linejoin="round"/>
<path d="M752.929 15.1056C752.929 15.1056 752.928 15.1056 752.925 14.5847C752.922 14.0637 752.917 13.0217 752.916 12.4752C752.916 11.9287 752.92 11.9093 752.928 11.8918C752.937 11.8744 752.951 11.8594 752.962 11.8608C752.973 11.8621 752.982 11.8803 752.991 12.2422C753 12.6042 753.01 13.3095 753.036 13.7773C753.062 14.2451 753.104 14.4542 753.144 14.4155C753.185 14.3768 753.221 14.084 753.342 13.5857C753.462 13.0874 753.664 12.3925 753.826 11.9067C753.989 11.4209 754.105 11.1653 754.18 11.011C754.321 10.7215 754.509 10.5922 754.756 10.4274C754.853 10.3626 754.941 10.3036 755.066 10.2498C755.24 10.1748 755.528 10.1437 755.899 10.0765C756.1 10.0402 756.316 9.96108 756.518 9.88713C756.719 9.81319 756.898 9.737 757.147 9.67143C757.396 9.60586 757.71 9.55322 757.936 9.5235C758.161 9.49378 758.288 9.48857 757.881 9.71592C757.473 9.94327 756.527 10.4033 755.71 10.878C754.893 11.3527 754.233 11.828 753.847 12.1152C753.462 12.4024 753.37 12.4871 753.348 12.5209C753.326 12.5546 753.377 12.5349 753.825 12.3056C754.273 12.0763 755.116 11.6381 755.94 11.2957C756.763 10.9534 757.54 10.7202 758.369 10.5301C759.197 10.34 760.053 10.1999 760.479 10.1319C760.906 10.064 760.876 10.0724 759.767 10.5972C758.658 11.1221 756.471 12.1631 755.266 12.7306C754.06 13.298 753.904 13.3603 753.8 13.4054C753.696 13.4506 753.648 13.4768 753.861 13.2781C754.074 13.0793 754.548 12.6549 755.156 12.2327C755.765 11.8105 756.493 11.4035 757.363 11.0408C758.232 10.678 759.221 10.3718 760.251 10.0507" stroke="#055217" stroke-linecap="round" stroke-linejoin="round"/>
<path d="M760.228 10.0256C760.262 10.0204 760.736 9.87484 761.168 9.77833C761.328 9.74267 761.45 9.77593 761.51 9.79146C761.573 9.80778 761.637 9.85022 761.95 10.1197C762.233 10.363 762.748 10.8435 763.04 11.104C763.377 11.4032 763.492 11.4561 763.584 11.4873C763.786 11.5561 763.636 10.8648 763.57 10.5101C763.52 10.2388 763.409 9.78721 763.346 9.36853C763.283 8.94985 763.263 8.57908 763.255 8.37654C763.242 8.08224 763.342 7.87308 763.462 7.67933C763.483 7.64443 763.501 7.63249 763.491 7.62929C763.481 7.62609 763.447 7.63412 762.287 7.97388C761.126 8.31363 758.84 8.98486 757.667 9.31635C756.495 9.64783 756.505 9.61923 756.557 9.55804C756.695 9.39635 756.84 9.28073 756.913 9.23302C756.946 9.21147 756.974 9.20068 758.047 9.04226C759.12 8.88384 761.238 8.57948 762.317 8.42312C763.396 8.26677 763.371 8.26763 762.416 8.53526C761.46 8.8029 759.574 9.33727 759.379 9.50351C759.183 9.66974 760.735 9.45163 761.641 9.30619C762.547 9.16074 762.761 9.09456 762.886 9.05496C763.01 9.01537 763.038 9.00437 763.056 9.00894C763.074 9.01351 763.081 9.03399 763.085 9.32322C763.088 9.61245 763.088 10.1698 762.99 10.3232C762.821 10.5886 762.478 9.90194 762.437 9.81932C762.413 9.76917 762.388 9.69861 762.443 9.98668C762.497 10.2747 762.634 10.9226 762.692 11.2613C762.75 11.6 762.724 11.6099 762.7 11.6146C762.658 11.6232 762.606 11.61 762.284 11.4488C761.99 11.3017 761.443 10.9976 760.949 10.7758C760.455 10.554 760.033 10.4177 759.574 10.2849C759.116 10.1522 758.633 10.0272 758.386 9.953C758.14 9.87878 758.143 9.85909 758.191 9.8274C758.322 9.74004 758.573 9.66317 758.85 9.59539C758.974 9.56479 759.075 9.57369 759.527 9.70868C759.979 9.84366 760.782 10.1126 761.29 10.3034C761.799 10.4942 761.99 10.5987 762.096 10.658C762.202 10.7173 762.219 10.7283 761.984 10.7506C761.749 10.7729 761.262 10.8061 760.719 10.8735C760.177 10.9409 759.594 11.0414 759.388 11.1185C759.182 11.1955 759.37 11.2461 759.735 11.2878C760.1 11.3295 760.637 11.3607 761.232 11.3644C761.827 11.368 762.466 11.3433 762.836 11.337C763.291 11.3293 763.5 11.3954 763.782 11.5011C763.941 11.5685 764.131 11.6638 764.241 11.7233C764.35 11.7828 764.373 11.8036 764.404 11.8689" stroke="#055217" stroke-linecap="round" stroke-linejoin="round"/>
<path d="M630.331 24.4558C630.344 24.609 630.507 25.0003 630.724 25.1552C630.839 25.1976 630.966 25.1664 631.031 25.0264C631.096 24.8864 631.096 24.6386 630.979 24.1961" stroke="#055217" stroke-linecap="round" stroke-linejoin="round"/>
<path d="M104.103 30.4205C104.18 30.3001 104.318 29.8882 104.279 29.6089C104.262 29.4878 104.119 29.4461 104.004 29.4308C103.889 29.4154 103.773 29.4374 103.719 29.5066C103.603 29.6563 103.753 29.928 103.904 30.1404C104.101 30.3067 104.331 30.403 104.583 30.4384C104.717 30.4505 104.862 30.4505 105.037 30.4582" stroke="#055217" stroke-linecap="round" stroke-linejoin="round"/>
</svg>
