<svg width="746" height="150" viewBox="0 0 746 150" fill="none" xmlns="http://www.w3.org/2000/svg">
<path d="M707 37C706.965 36.7166 706.638 35.2974 706.374 34.0116C706.113 32.7407 705.985 31.4916 704.953 30.4374C703.296 28.7434 700.936 28.2458 697.932 27.5554C694.706 26.8141 692.769 27.7379 688.965 27.6948C686.278 27.6644 684.355 25.5832 682.082 22.6832C679.344 19.1901 678.116 15.5702 677.578 12.7563C676.227 5.68065 676.642 4.63816 675.643 3.58807C674.606 2.4992 673.486 2.25887 673.173 2.09554C672.147 1.56082 675.968 3.41503 677.213 4.10066C679.729 5.48635 682.988 7.81308 684.674 8.39151C686.507 9.02021 690.402 8.34191 693.539 8.08363C695.665 7.9085 697.545 8.24492 698.606 8.60226C700.002 9.07222 700.809 10.5929 701.93 13.0567C702.953 15.3033 703.266 19.6918 703.697 24.2585C704.221 26.8704 704.936 27.7096 705.631 28.4286C705.924 28.7417 706.095 28.9496 706.294 29.2418" stroke="#011A07" stroke-width="4" stroke-linecap="round" stroke-linejoin="round"/>
<path d="M706.403 39C706.341 38.6131 706.19 37.3509 706.258 35.1236C706.345 32.2763 710.185 30.0968 712.133 28.9022C713.191 28.2532 714.362 28.1487 715.025 27.9154C716.465 27.4092 714.212 24.3078 714.013 21.8296C713.762 18.7123 716.718 16.5833 718.482 15.2895C720.413 13.8733 723.059 13.5629 727.555 12.7339C730.682 12.1573 732.568 10.2044 732.814 10.0514C733.673 9.51541 731.329 13.2916 730.535 15.9492C730.007 17.7177 731.173 19.088 731.495 20.3452C731.705 21.1612 731.855 21.9914 731.852 22.6871C731.85 23.2343 731.495 23.6925 731.007 24.2041C729.145 26.1585 724.621 27.2109 718.806 28.5287C716.56 29.0377 714.098 30.1518 710.994 31.7393C708.199 33.4624 706.68 34.569 706.367 34.9721C706.225 35.1854 706.118 35.4162 706 35.8523" stroke="#011A07" stroke-width="4" stroke-linecap="round" stroke-linejoin="round"/>
<path d="M665.326 122.051C665.603 120.702 666.019 119.859 666.573 119.521C667.183 119.184 667.82 120.027 668.485 122.051C668.485 122.275 668.735 122.613 669.234 123.062C669.788 123.4 670.453 123.849 671.229 124.411C672.061 124.861 673.003 125.367 674.056 125.929C675.165 126.378 676.246 126.828 677.299 127.278C678.352 127.615 679.378 127.952 680.375 128.289C681.373 128.514 682.232 128.626 682.953 128.626C684.837 128.626 686.556 127.84 688.108 126.266C689.715 124.58 691.073 122.444 692.182 119.859C693.346 117.273 694.233 114.351 694.843 111.091C695.452 107.719 695.757 104.29 695.757 100.805C695.757 99.7938 695.674 98.0515 695.508 95.5785C695.342 92.9931 695.064 90.4639 694.676 87.991C694.288 85.4056 693.762 83.1012 693.097 81.0779C692.487 79.0545 691.739 78.0428 690.852 78.0428C685.087 79.3917 680.348 79.9538 676.634 79.729C672.975 79.3917 670.065 78.4925 667.903 77.0312C665.742 75.5699 664.217 73.6027 663.33 71.1297C662.499 68.5443 662.055 65.6217 662 62.3619C662 58.3152 662.499 54.4371 663.497 50.7277C664.494 46.9058 665.769 43.5335 667.321 40.6109C668.873 37.6883 670.592 35.384 672.476 33.6978C674.416 31.8993 676.329 31 678.213 31C679.766 31 681.373 31.3935 683.036 32.1803C684.754 32.9672 686.334 34.2037 687.775 35.8898C689.216 37.4635 690.381 39.5993 691.267 42.2971C692.21 44.8824 692.681 48.0299 692.681 51.7393C691.351 51.7393 690.131 51.0087 689.022 49.5474C687.914 47.9737 686.805 46.3437 685.697 44.6576C684.588 42.9715 683.424 41.3978 682.204 39.9365C680.985 38.3628 679.572 37.5759 677.964 37.5759C676.634 37.5759 675.276 38.2504 673.89 39.5993C672.56 40.9482 671.34 42.6905 670.231 44.8262C669.178 46.962 668.291 49.3788 667.571 52.0766C666.906 54.6619 666.573 57.3597 666.573 60.1699C666.573 61.294 666.573 62.5305 666.573 63.8794C666.628 65.1159 666.767 66.3524 666.989 67.5889C667.21 68.713 667.543 69.6684 667.987 70.4553C668.485 71.2421 669.178 71.6356 670.065 71.6356H692.431C693.374 71.6356 694.178 72.2538 694.843 73.4903C695.563 74.6144 696.145 76.0757 696.589 77.8742C697.088 79.6728 697.476 81.6961 697.753 83.9443C698.085 86.1924 698.335 88.3844 698.501 90.5201C698.723 92.6559 698.861 94.6792 698.917 96.5902C698.972 98.3887 699 99.7938 699 100.805C699 105.189 698.695 109.348 698.085 113.283C697.476 117.105 696.561 120.589 695.342 123.737C694.122 126.772 692.598 129.301 690.769 131.324C688.939 133.235 686.833 134.416 684.449 134.865C683.285 135.09 681.761 135.034 679.876 134.697C678.047 134.359 676.19 133.741 674.306 132.842C672.421 131.83 670.647 130.481 668.984 128.795C667.321 126.997 666.102 124.748 665.326 122.051Z" fill="#011A07"/>
<path d="M40 134.422C43.856 134.42 54.1592 134.294 62.9289 134.035C84.1878 133.408 93.2729 132.138 102.466 130.448C106.309 129.741 113.116 128.834 121.166 127.82C129.216 126.806 138.323 125.805 150.893 125.315C163.464 124.825 179.222 124.876 194.456 125.683C209.689 126.49 223.921 128.05 235.818 129.014C247.715 129.978 256.846 130.297 265.407 131.066C281.747 132.534 293.51 135.192 299.821 136.612C307.966 138.445 321.325 140.175 334.186 141.11C347.409 142.936 357.566 144.116 366.358 144.722C371.25 144.864 379.5 144.931 388 145" stroke="#011A07" stroke-width="4" stroke-linecap="round" stroke-linejoin="round"/>
<path d="M386 145C388.195 144.997 397.428 144.467 415.759 141.243C425.136 139.594 440.474 136.437 453.014 134.371C465.554 132.304 474.797 131.267 483.227 130.696C498.966 129.63 507.343 130.048 512.668 130.271C517.202 130.461 525.461 130.652 533.331 131.361C541.201 132.07 548.434 133.252 554.86 134.571C566.689 137.311 578.22 139.794 589.357 141.345C594.528 141.877 598.725 141.891 605 141.548" stroke="#011A07" stroke-width="4" stroke-linecap="round" stroke-linejoin="round"/>
<path d="M26.9235 82.4485C25.6082 83.8691 24.3704 85.1477 23.2099 86.2842C22.1267 87.3259 21.0049 88.2257 19.8444 88.9833C18.684 89.6463 17.4848 90.1672 16.2469 90.546C15.0864 90.9248 13.7712 91.1142 12.3012 91.1142C10.135 91.1142 8.27819 90.4513 6.73086 89.1254C5.26091 87.7048 3.98436 85.9527 2.90123 83.8691C1.89547 81.6908 1.16049 79.4179 0.696296 77.0502C0.232099 74.5878 0 72.2201 0 69.9471C0 67.6741 0.154733 65.2591 0.464198 62.702C0.851029 60.0502 1.43128 57.4457 2.20494 54.8886C2.9786 52.2368 3.907 49.7271 4.99012 47.3594C6.15062 44.897 7.46584 42.7661 8.9358 40.9666C10.4058 39.1672 12.0691 37.7466 13.9259 36.7048C15.7827 35.5683 17.7942 35 19.9605 35C22.1267 35 24.0996 35.4262 25.879 36.2786C27.6584 37.131 29.1671 38.3622 30.4049 39.9722C31.7202 41.4875 32.7259 43.429 33.4222 45.7967C34.1959 48.0697 34.5827 50.6268 34.5827 53.468C34.5827 58.2034 34.3893 62.9388 34.0025 67.6741C33.693 72.3148 33.3449 77.0028 32.958 81.7382C32.5712 86.3789 32.1844 91.0669 31.7975 95.8023C31.4881 100.538 31.3333 105.273 31.3333 110.008C30.8691 113.418 31.1399 116.543 32.1457 119.384C33.1514 122.226 34.4667 124.688 36.0914 126.772C37.7934 128.95 39.6115 130.655 41.5457 131.886C43.5572 133.212 45.3753 134.017 47 134.301C46.6905 134.585 46.1877 134.869 45.4914 135.153C44.8724 135.437 44.2148 135.721 43.5185 136.006C42.8222 136.29 42.1259 136.526 41.4296 136.716C40.8107 136.905 40.4239 137 40.2691 137C38.7218 136.811 37.1745 136.242 35.6272 135.295C34.0798 134.348 32.6486 133.117 31.3333 131.602C30.0955 130.086 29.051 128.382 28.2 126.487C27.349 124.593 26.9235 122.652 26.9235 120.663V82.4485ZM4.52593 68.6686C4.52593 69.8998 4.68066 71.4624 4.99012 73.3566C5.29959 75.2507 5.76379 77.0975 6.38272 78.897C7.00165 80.6017 7.81399 82.117 8.81975 83.4429C9.82551 84.6741 11.0247 85.2897 12.4173 85.2897C15.0477 85.2897 17.4074 84.39 19.4963 82.5906C21.6626 80.7911 23.442 78.5181 24.8346 75.7716C26.3045 73.0251 27.3877 70.0892 28.084 66.9638C28.8576 63.7438 29.2444 60.7605 29.2444 58.014C29.2444 56.4039 29.1284 54.6045 28.8963 52.6156C28.6642 50.5321 28.1613 48.5906 27.3877 46.7911C26.6914 44.897 25.7243 43.3343 24.4864 42.1031C23.2486 40.7772 21.6626 40.1142 19.7284 40.1142C18.1811 40.1142 16.7111 40.6825 15.3185 41.819C14.0033 42.9555 12.7654 44.4234 11.6049 46.2229C10.5218 48.0223 9.51605 50.0112 8.58765 52.1894C7.73663 54.3677 7.00165 56.546 6.38272 58.7243C5.84115 60.8078 5.37695 62.7493 4.99012 64.5488C4.68066 66.3482 4.52593 67.7215 4.52593 68.6686Z" fill="#011A07"/>
<path d="M716 27.8922C716.149 27.5778 716.696 26.6131 717.125 25.9071C717.618 25.0955 718.166 23.9897 718.82 23.1762C720.015 22.1016 720.896 21.6506 723.063 21.1139C723.709 21.0224 724.343 21.0114 724.997 21" stroke="#011A07" stroke-width="2" stroke-linecap="round" stroke-linejoin="round"/>
<path d="M702.62 27.7558C701.879 26.4895 699.789 23.3207 698.018 21.8323C695.148 19.4195 692.621 19.5495 691.308 19.3118C690.661 19.2611 690.054 19.1832 689.397 19.0537C689.022 18.9949 688.563 18.95 687.614 18.7739" stroke="#011A07" stroke-width="2" stroke-linecap="round" stroke-linejoin="round"/>
<path d="M603.963 141.508C604.358 141.508 605.508 141.459 606.23 141.366C606.941 141.275 607.692 141.073 609.074 140.773C610.683 140.424 611.5 140.439 613.648 139.974C614.575 139.774 615.878 139.399 617.351 138.982C618.823 138.564 620.422 138.086 624.119 136.817C627.817 135.549 633.565 133.505 637.171 132.195C642.08 130.412 643.685 129.689 644.474 129.319C646.555 128.346 647.524 128.139 648.784 127.505C650.009 126.888 651.854 126.015 652.794 125.573C653.697 125.147 654.856 124.791 655.756 124.505C656.482 124.274 657.309 124.136 658.035 123.945C658.774 123.75 659.54 123.698 660.562 123.325C662.072 122.773 662.917 122.61 663.837 122.536C664.955 122.445 666.228 122.579 666.6 122.856C666.759 123 666.86 123.149 666.963 123.302" stroke="#011A07" stroke-width="4" stroke-linecap="round" stroke-linejoin="round"/>
<path d="M690 45.5356C690.039 45.7571 690.341 46.5358 690.732 47.303C691.321 48.4554 691.772 49.0937 692.427 49.7087C693.016 50.2613 696.776 50.1775 699.414 49.8976C700.652 49.7663 701.256 48.9411 703.113 47.7544C704.601 46.803 705.868 45.011 706.4 44.11C706.65 42.1867 706.573 39.7176 706.387 38.5218C706.279 37.9593 706.142 37.4868 706.001 37" stroke="#011A07" stroke-width="4" stroke-linecap="round" stroke-linejoin="round"/>
<path d="M76.033 132.75C77.6949 132.325 85.4215 129.241 91.8353 126.353C98.5499 122.396 101.453 120.119 103.061 118.529C103.788 117.712 104.333 116.873 105.519 115.133" stroke="#011A07" stroke-width="4" stroke-linecap="round" stroke-linejoin="round"/>
<path d="M435.754 137.892C437.391 137.481 443.103 135.15 448.446 132.586C453.258 129.599 456.524 127.413 458.526 125.742C459.47 124.931 460.264 124.192 461.219 123.191" stroke="#011A07" stroke-width="4" stroke-linecap="round" stroke-linejoin="round"/>
<path d="M524.573 130.02C525.987 130.021 531.26 130.638 540.017 133.723C545.597 135.688 550.271 137.036 554.082 138.983C558.317 141.226 562.895 143.624 567.602 146.353C568.749 146.896 569.789 147.163 571.346 147.683" stroke="#011A07" stroke-width="4" stroke-linecap="round" stroke-linejoin="round"/>
<path d="M204.409 127.643C208.758 127.643 219.183 128.006 224.414 128.843C228.924 129.565 233.204 130.577 237.748 132.146C244.195 135.109 250.239 138.194 252.29 139.171C253.346 139.695 254.433 140.278 258.022 142.006" stroke="#011A07" stroke-width="4" stroke-linecap="round" stroke-linejoin="round"/>
<path d="M684.625 14.2116C684.639 14.2116 684.77 14.3645 685.087 14.5102C685.527 14.713 686.053 13.8722 686.447 13.5602C686.623 13.7625 686.656 14.2132 686.712 14.6399C686.768 14.8548 686.88 15.0664 686.996 15.4164" stroke="#055217" stroke-width="4" stroke-linecap="round" stroke-linejoin="round"/>
<path d="M687.676 13.1696C687.903 13.3873 688.816 13.8883 689.732 13.9796C690.881 14.0941 693.298 14.8147 697.018 16.5116C698.285 17.0898 698.822 17.7703 699.428 18.4375C699.561 18.6207 699.665 18.8135 699.768 18.9966C699.87 19.1797 699.967 19.3474 700.226 19.9421" stroke="#055217" stroke-width="4" stroke-linecap="round" stroke-linejoin="round"/>
<path d="M686.086 17.2089C687.159 17.2089 689.674 17.2867 690.976 17.658C692.85 18.1927 693.64 18.6087 694.483 18.7541C695.327 18.8995 696.458 19.1327 697.542 19.5387C697.764 19.6418 697.952 19.7417 698.209 19.9387C698.466 20.1358 698.786 20.4271 699.604 21.0298" stroke="#055217" stroke-linecap="round" stroke-linejoin="round"/>
<path d="M699.558 21.0298C699.817 21.201 700.587 21.8072 701.167 22.504C701.601 23.2396 701.793 23.8682 701.889 24.2436C701.954 24.4291 702.054 24.6042 702.321 25.0534" stroke="#055217" stroke-linecap="round" stroke-linejoin="round"/>
<path d="M701.927 20.6503C701.929 20.9286 701.996 21.7743 702.078 22.2015C702.16 22.6288 702.244 23.1018 702.286 23.5346C702.335 24.0409 702.407 24.6681 702.492 25.2252C702.523 25.4339 702.531 25.4924 702.539 25.5395C702.547 25.5867 702.554 25.6208 702.535 25.5428C702.467 25.2741 702.391 25.0013 702.278 24.7607C701.918 23.9888 701.66 23.7377 701.488 23.5437C701.315 23.3475 701.064 22.9837 700.629 22.4694C700.466 22.2771 700.184 22.0046 699.716 21.5445C699.457 21.2907 699.132 21.0221 698.846 20.7962C698.329 20.3875 697.926 20.1196 697.695 19.9435C697.486 19.784 697.056 19.5318 696.661 19.3349C695.899 19.0818 695.789 19.0503 695.702 19.037C695.657 19.0289 695.61 19.0181 695.49 18.9371" stroke="#055217" stroke-linecap="round" stroke-linejoin="round"/>
<path d="M701.517 20.6306C701.524 20.6866 701.551 20.8593 701.638 21.0392C701.765 21.2385 701.923 21.4442 702.049 21.5831C702.1 21.6413 702.123 21.6745 702.169 21.7799" stroke="#055217" stroke-linecap="round" stroke-linejoin="round"/>
<path d="M692.793 19.2598C692.701 19.258 692.245 19.1817 691.661 19.0218C690.91 18.8163 690.309 18.7519 690.054 18.7218C689.672 18.6768 689.042 18.547 688.385 18.3967C688.037 18.3172 687.489 18.2866 687.146 18.2645C686.361 18.2137 688.72 18.2721 688.978 18.2938C689.4 18.3293 690.201 18.4268 691.088 18.5723C692.029 18.7267 692.787 18.9695 693.17 19.0725C693.45 19.1476 693.673 19.1861 693.942 19.2871C693.962 19.3118 693.905 19.3246 693.819 19.3312C693.734 19.3377 693.622 19.3377 693.506 19.3377" stroke="#055217" stroke-linecap="round" stroke-linejoin="round"/>
<path d="M683.206 14.1596C683.206 14.1633 683.211 14.7094 683.27 15.7012C683.297 16.1511 683.423 16.4831 683.575 16.8855C683.727 17.2879 683.928 17.7482 684.21 18.2364C684.801 19.2573 685.274 19.7962 685.498 19.973C685.936 20.3185 686.611 20.6674 687.299 20.9599C687.619 21.096 687.903 21.1464 688.859 21.3268C689.815 21.5073 691.439 21.8009 692.334 21.9682C693.345 22.1573 693.633 22.2359 694.261 22.394C694.719 22.5092 695.45 22.7258 695.972 22.8983C697.122 23.369 697.421 23.7088 697.671 23.9783C697.724 24.0255 697.787 24.0768 697.908 24.1675" stroke="#055217" stroke-linecap="round" stroke-linejoin="round"/>
<path d="M697.626 24.0286C697.716 24.0286 698.217 24.2332 698.457 24.4022C698.576 24.4864 698.862 24.7303 699.132 24.9593C699.298 25.1004 699.557 25.2266 699.71 25.3381C699.796 25.4012 699.546 25.1337 699.054 24.6238C698.644 24.1986 698.526 24.0228 698.408 23.8815C698.314 23.7685 698.021 23.5876 697.437 23.1148C697.284 22.9913 697.197 22.919 697.011 22.7791C696.344 22.2792 696.058 22.0865 695.797 21.9315C695.552 21.7851 695.133 21.6196 694.743 21.45C694.574 21.376 694.501 21.3541 694.321 21.2934C693.951 21.1684 693.453 21.0512 693.039 20.9695C692.879 20.9379 692.819 20.9334 692.115 20.8201C691.411 20.7067 690.063 20.4865 689.2 20.3391C688.336 20.1918 687.998 20.124 687.798 20.0811C687.598 20.0381 687.546 20.0222 687.432 19.9618" stroke="#055217" stroke-linecap="round" stroke-linejoin="round"/>
<path d="M688.052 21.2424C688.101 21.2424 688.468 21.3009 689.086 21.4429C689.446 21.5256 689.898 21.633 690.37 21.7148C690.843 21.7965 691.321 21.8502 691.943 21.9323C692.566 22.0144 693.317 22.1233 693.749 22.1944C694.18 22.2654 694.269 22.2955 694.374 22.3436C694.478 22.3917 694.596 22.4569 694.768 22.5565" stroke="#055217" stroke-linecap="round" stroke-linejoin="round"/>
<path d="M694.794 22.574C694.795 22.574 694.796 22.574 694.828 22.5741C694.859 22.5741 694.921 22.5743 694.975 22.5858C695.03 22.5973 695.076 22.6203 695.196 22.6926" stroke="#055217" stroke-linecap="round" stroke-linejoin="round"/>
<path d="M698.252 24.8159C698.249 24.8159 698.077 24.8145 697.799 24.8094C697.659 24.8068 697.438 24.7471 696.658 24.6555C696.067 24.5859 695.068 24.5648 694.252 24.5441C693.436 24.5233 692.829 24.5278 692.427 24.5169C692.026 24.5061 691.846 24.4797 691.356 24.3523C690.866 24.225 690.071 23.9973 689.486 23.7786C688.901 23.5599 688.55 23.357 688.247 23.1478C687.943 22.9386 687.698 22.7292 687.399 22.4185C687.099 22.1077 686.753 21.702 686.563 21.4691C686.372 21.2361 686.348 21.1881 686.388 21.1866C686.429 21.185 686.534 21.2312 686.797 21.3893C687.06 21.5473 687.478 21.8158 687.772 21.983C688.066 22.1502 688.224 22.208 688.815 22.3139C689.407 22.4198 690.428 22.5719 691.461 22.6577C692.494 22.7434 693.508 22.7581 694.216 22.7968C694.924 22.8355 695.295 22.8976 695.577 22.9608C696.045 23.0656 696.342 23.218 696.56 23.3557C696.757 23.4804 696.958 23.64 697.127 23.7514C697.177 23.7841 697.128 23.8007 696.814 23.7492C696.5 23.6976 695.916 23.5857 694.802 23.4774C693.688 23.3691 692.062 23.2679 690.97 23.1501C689.879 23.0323 689.37 22.901 689.214 22.8924C689.091 22.8855 689.73 23.2172 690.262 23.3957C690.551 23.4926 690.894 23.5528 691.789 23.6321C692.685 23.7114 694.127 23.7954 694.907 23.8444C695.687 23.8935 695.763 23.9052 694.745 23.7477C693.728 23.5903 691.615 23.2634 690.374 23.0504C689.133 22.8374 688.826 22.7483 688.617 22.6815C688.409 22.6147 688.306 22.5729 688.247 22.5458" stroke="#055217" stroke-linecap="round" stroke-linejoin="round"/>
<path d="M698.288 25.1748C698.188 25.1748 697.934 25.166 697.718 25.1195C697.629 25.1004 697.549 25.0873 697.405 25.0538C697.133 24.9905 696.719 24.9211 696.023 24.8412C695.565 24.7887 694.89 24.7804 694.476 24.7747C693.928 24.7673 693.594 24.8124 692.964 24.8872C692.531 24.9488 691.865 25.0584 691.429 25.1196C690.994 25.1808 690.81 25.1903 690.614 25.2456" stroke="#055217" stroke-linecap="round" stroke-linejoin="round"/>
<path d="M693.227 25.7921C693.223 25.7921 692.916 25.7921 692.414 25.8C692.139 25.8044 691.65 25.8428 691.01 25.8441C690.619 25.8449 690.336 25.7999 689.851 25.7713C689.585 25.7556 689.341 25.651 688.792 25.2835C688.524 25.1051 688.166 24.7662 687.554 24.0059C686.941 23.2457 686.102 22.0535 685.685 21.4486C685.269 20.8438 685.301 20.8626 685.699 21.219C686.096 21.5755 686.859 22.2691 687.446 22.8566C688.033 23.4442 688.422 23.9046 688.746 24.2492C689.07 24.5937 689.317 24.8082 689.547 24.9753C689.966 25.2794 690.235 25.3886 690.359 25.4252C690.441 25.4493 690.566 25.4668 690.052 24.8287C689.538 24.1906 688.383 22.8918 687.535 21.8685C686.688 20.8452 686.184 20.1367 685.866 19.6636C685.412 18.9872 685.295 18.7004 685.26 18.4525C685.129 17.5323 685.214 17.3585 685.267 17.1464C685.284 17.0801 685.327 17.0088 685.349 16.9882C685.372 16.9659 685.359 17.1277 685.341 17.394C685.33 17.5574 685.534 17.9403 686.095 18.6871C686.31 18.9734 686.468 19.0805 686.519 19.136C686.577 19.2 686.755 19.6162 687.028 20.2239C687.181 20.5648 687.301 20.6656 687.381 20.7053C687.498 20.7638 687.675 20.7874 687.757 20.779C688.261 20.7269 686.995 20.1832 686.925 19.8306C686.853 19.4665 686.917 19.2042 686.942 19.1416C687.014 18.959 687.24 18.79 687.535 18.6644C687.998 18.4668 688.365 18.4286 688.567 18.4254C689.051 18.4176 689.633 18.4761 690.078 18.5457C690.264 18.5746 690.369 18.5732 690.819 18.6263C691.269 18.6793 692.061 18.7824 692.82 18.8834C693.579 18.9843 694.281 19.08 695.004 19.1787" stroke="#055217" stroke-linecap="round" stroke-linejoin="round"/>
<path d="M696.949 18.0339C696.942 18.0339 696.6 18.0263 695.795 17.9551C695.326 17.9137 694.744 17.7726 694.078 17.5784C693.411 17.3843 692.68 17.1188 691.609 16.8527C690.538 16.5866 689.148 16.3281 688.274 16.1825C687.4 16.0368 687.085 16.012 686.891 15.9924C686.696 15.9728 686.632 15.9593 686.627 15.9456C686.622 15.932 686.678 15.9186 686.922 15.9112C687.166 15.9037 687.597 15.9026 688.798 16.207C689.999 16.5114 691.957 17.1214 693.383 17.5558C694.809 17.9902 695.644 18.2306 696.159 18.3986C696.675 18.5667 696.845 18.6552 696.888 18.6846C696.931 18.714 696.842 18.6817 696.208 18.3952C695.575 18.1087 694.399 17.569 693.556 17.2169C692.713 16.8649 692.238 16.7168 691.452 16.5733C690.666 16.4298 689.584 16.2954 688.882 16.224C688.18 16.1526 687.891 16.1483 687.39 16.2201C686.888 16.2919 686.184 16.44 685.802 16.5184C685.419 16.5967 685.38 16.6008 685.335 16.603C685.289 16.6052 685.239 16.6053 685.711 16.5874C686.184 16.5694 687.181 16.5334 687.889 16.5309C688.597 16.5285 688.986 16.5609 689.171 16.5799C689.355 16.599 689.323 16.6038 688.788 16.6004C688.253 16.597 687.216 16.5852 686.649 16.575C686.018 16.5636 685.853 16.522 685.523 16.3979C684.914 16.169 684.358 15.8274 684.128 16.0088C683.884 16.2006 684.24 17.0659 684.329 17.8007C684.418 18.5355 684.447 19.2339 684.473 19.638C684.515 20.2971 684.659 20.4976 684.708 20.5907C684.821 20.8073 684.236 20.0011 684.007 19.4375C683.873 19.1076 683.784 18.6583 683.7 18.0717C683.616 17.4851 683.561 16.767 683.535 16.3553C683.488 15.6166 683.664 15.2656 683.685 15.2582C683.897 15.1805 683.623 15.9219 683.529 16.646C683.476 17.0493 683.481 17.5326 683.503 17.9053C683.539 18.531 683.716 18.9619 683.889 19.3214C683.983 19.5034 684.089 19.6843 684.299 19.9848C684.509 20.2852 684.82 20.6998 685.161 21.1491" stroke="#055217" stroke-linecap="round" stroke-linejoin="round"/>
<path d="M685.753 22.011C685.753 22.0687 685.843 22.4202 685.967 22.6643C686.071 22.8712 686.376 23.2313 686.588 23.523C686.733 23.7229 686.968 23.9904 687.314 24.363C687.45 24.5085 687.555 24.6231 687.779 24.8345C688.23 25.2609 688.606 25.5256 688.702 25.5743C688.852 25.6504 689.422 25.7929 690.041 25.9469C690.33 26.0187 690.629 26.0892 691.066 26.121C691.791 26.1739 692.32 26.1302 692.552 26.0722C692.937 25.9759 693.453 25.7219 693.918 25.4934C694.09 25.4111 694.133 25.3971 694.455 25.3325C694.777 25.2679 695.376 25.1531 695.994 25.0348" stroke="#055217" stroke-linecap="round" stroke-linejoin="round"/>
<path d="M686.165 23.0009C686.156 22.9657 686.104 22.8484 685.89 22.5706C685.698 22.3204 685.487 22.2246 685.159 21.7731C684.936 21.4666 684.739 21.1807 684.547 20.9599C684.364 20.7496 684.187 20.4546 683.828 19.8377C683.572 19.3962 683.201 18.6726 682.957 18.1898C682.712 17.707 682.616 17.4816 682.525 17.223C682.249 16.2996 682.187 16.0666 682.142 15.9633C682.122 15.9189 682.105 15.8907 682.049 15.8167" stroke="#055217" stroke-linecap="round" stroke-linejoin="round"/>
<path d="M680 8.00003C680.004 8.04098 680.109 8.33848 680.361 9.11298C680.425 9.30863 680.454 9.46861 680.576 9.9941C680.698 10.5196 680.905 11.4082 681.038 12.048C681.171 12.6879 681.225 13.0521 681.374 13.7047C681.523 14.3572 681.764 15.287 681.934 15.8668C682.166 16.6575 682.329 16.9148 682.43 17.0501C682.758 17.395 683.066 17.6173 683.369 17.7166C683.471 17.7387 683.598 17.7584 683.816 17.7819" stroke="#055217" stroke-linecap="round" stroke-linejoin="round"/>
<path d="M683.861 18.7697C683.861 18.7722 683.858 18.4608 683.844 17.9255C683.838 17.7027 683.817 17.5796 683.659 16.927C683.5 16.2745 683.202 15.0963 682.909 14.0366C682.617 12.9769 682.34 12.0714 682.141 11.4057C681.942 10.7401 681.828 10.3418 681.734 10.0637C681.498 9.37273 681.258 9.16924 681.146 9.04847C681.032 8.9251 680.919 8.84303 680.881 8.85771C680.847 8.87116 680.876 8.98563 681.112 10.0219C681.348 11.0582 681.812 13.0356 682.162 14.3726C682.512 15.7097 682.732 16.3465 682.853 16.6882C682.975 17.0299 682.99 17.0571 683.007 17.0852" stroke="#055217" stroke-linecap="round" stroke-linejoin="round"/>
<path d="M680.165 8.0374C680.199 8.05361 680.32 8.1353 680.442 8.22471C680.593 8.33617 680.775 8.4717 681.284 8.81475C681.659 9.06726 682.284 9.45824 683.103 9.83279C683.923 10.2073 684.921 10.5483 685.676 10.7763C686.431 11.0042 686.911 11.1089 687.603 11.1821C688.295 11.2554 689.185 11.294 690.12 11.2866C691.056 11.2792 692.011 11.2246 692.999 11.1649" stroke="#055217" stroke-linecap="round" stroke-linejoin="round"/>
<path d="M692.079 11.2071C692.264 11.2071 692.897 11.1774 693.196 11.1489C693.303 11.1388 693.481 11.1097 694.264 11.0592C695.046 11.0088 696.428 10.9348 697.165 10.9009C697.954 10.8645 698.188 10.9308 698.517 11.026C698.96 11.1545 699.242 11.4136 699.545 11.7514C699.706 11.9313 699.933 12.3021 700.196 12.71C700.46 13.1179 700.732 13.5679 700.968 14.0494C701.205 14.5309 701.398 15.0302 701.603 15.6644C701.809 16.2986 702.021 17.0526 702.146 17.5743C702.406 18.6583 702.402 18.8099 702.49 18.9267C702.511 18.9544 702.528 18.9822 702.553 19.0084C702.578 19.0345 702.608 19.0583 702.721 19.1063" stroke="#055217" stroke-linecap="round" stroke-linejoin="round"/>
<path d="M702.427 17.6186C702.427 17.627 702.427 17.7163 702.434 17.8626C702.441 17.9238 702.456 17.9589 702.478 18.0108C702.501 18.0627 702.532 18.1305 702.563 18.2003" stroke="#055217" stroke-linecap="round" stroke-linejoin="round"/>
<path d="M702.459 17.357C702.46 17.4408 702.477 17.6967 702.579 17.9938C702.615 18.0978 702.679 18.2183 702.724 18.3385C702.769 18.4588 702.799 18.5726 702.885 19.5536C702.97 20.5347 703.11 22.3797 703.27 24.3051" stroke="#055217" stroke-linecap="round" stroke-linejoin="round"/>
<path d="M703.27 24.3263C703.271 24.4405 703.323 24.9278 703.361 25.2355C703.369 25.7397 703.389 25.9203 703.404 25.9896C703.411 26.0232 703.419 26.0538 703.431 26.1035" stroke="#055217" stroke-linecap="round" stroke-linejoin="round"/>
<path d="M700.829 17.7654C700.826 17.763 700.795 17.7304 700.62 17.5101C700.471 17.3235 700.214 16.9755 699.72 16.1661C699.225 15.3567 698.503 14.0941 698.033 13.1972C697.563 12.3004 697.367 11.8076 697.258 11.5401C697.138 11.2441 697.059 11.0966 697.006 10.9226C696.99 10.8713 697.091 10.888 697.156 10.9088C697.272 10.9463 697.546 11.1712 697.925 11.5178C698.084 11.6633 698.154 11.7706 698.383 12.2215C698.612 12.6724 698.993 13.4696 699.264 14.0762C699.534 14.6829 699.682 15.0748 699.92 15.5482C700.158 16.0215 700.483 16.5643 700.664 16.8521C700.846 17.1399 700.875 17.1562 700.905 17.1643C700.936 17.1725 700.967 17.172 700.993 17.1552C701.134 17.0668 701.124 16.8204 701.134 16.6612C701.148 16.4588 700.909 16.051 700.519 15.4282C700.308 15.0913 700.051 14.7243 699.734 14.218C699.418 13.7116 699.045 13.0801 698.787 12.5894C698.53 12.0987 698.4 11.7679 698.289 11.5305C698.006 10.922 697.744 10.7462 697.619 10.6572C697.61 10.6508 697.882 10.9234 698.331 11.37C698.547 11.5843 698.711 11.7986 698.857 12.0342C699.003 12.2698 699.119 12.5266 699.292 12.8203C699.464 13.1139 699.689 13.4367 699.779 13.5948C699.87 13.7528 699.819 13.7363 698.992 13.6792C698.164 13.622 696.563 13.5247 695.288 13.5177C694.014 13.5108 693.116 13.5972 692.592 13.6572C692.069 13.7172 691.947 13.7481 691.907 13.7704C691.868 13.7928 691.914 13.8055 692.364 13.8294C692.813 13.8532 693.664 13.8877 694.616 14.0104C695.569 14.1332 696.597 14.3431 697.247 14.4531C698.479 14.6614 698.74 14.4925 698.748 14.4766C698.797 14.3792 698.516 14.4639 698.439 14.4452C698.237 14.3965 698.085 14.117 697.884 13.6562C697.779 13.4147 697.662 12.9848 697.524 12.641C697.279 12.0322 697.045 11.7031 696.91 11.5462C696.688 11.2894 696.43 11.2103 695.836 11.1351C695.443 11.0854 694.707 11.1282 693.977 11.1897C693.248 11.2513 692.544 11.3734 692.06 11.4772C691.575 11.581 691.332 11.6627 691.252 11.7133C691.171 11.7639 691.261 11.7809 692.053 11.7393C692.846 11.6977 694.339 11.5971 695.258 11.4868C696.177 11.3765 696.475 11.2596 696.685 11.1676C697.01 11.0245 697.153 10.9142 697.197 10.8473C697.217 10.8175 697.186 10.777 697.149 10.7474C696.964 10.6031 696.406 10.6334 695.643 10.6517C695.272 10.6605 694.935 10.7059 694.51 10.7361C694.084 10.7664 693.58 10.7896 692.941 10.8904C692.302 10.9913 691.543 11.169 690.759 11.3104C689.974 11.4518 689.187 11.5515 688.751 11.6029C688.256 11.6613 688.143 11.6368 687.969 11.558C687.642 11.4098 687.319 11.2375 687.283 11.1495C687.243 11.0551 687.698 11.0747 688.285 11.0586C688.872 11.0425 689.714 11.0452 690.164 11.0519C690.648 11.0591 690.77 11.1264 691.073 11.3067C691.291 11.4363 691.628 11.6613 691.874 11.8063C692.119 11.9513 692.26 12.014 693.154 12.2063C694.048 12.3986 695.69 12.7185 696.578 12.8857C697.467 13.0529 697.553 13.0577 697.583 13.04C697.878 12.8681 696.843 12.2252 696.515 11.9708C696.393 11.8765 696.341 11.882 696.042 12.1418C695.742 12.4016 695.191 12.9229 694.88 13.2104C694.435 13.6209 694.297 13.653 694.235 13.6498C694.202 13.6481 694.176 13.6022 694.162 13.5561C694.092 13.332 694.265 13.0076 694.459 12.6865C694.605 12.4456 694.828 12.2822 694.97 12.1741C695.03 12.1282 695.07 12.1058 694.699 12.3535C694.328 12.6012 693.546 13.1211 693.155 13.3662C692.765 13.6114 692.79 13.5662 693.047 13.3264C693.303 13.0866 693.79 12.6536 694.107 12.3874C694.543 12.0207 694.72 11.9314 694.783 11.9044C694.851 11.8754 694.953 11.8749 695.075 11.8886C695.363 11.9211 695.524 12.1619 695.53 12.1873C695.549 12.2619 695.25 12.1723 694.516 12.2777C693.922 12.3629 692.888 12.5688 692.157 12.6705C691.426 12.7722 691.032 12.7779 690.786 12.7703C690.455 12.76 690.282 12.685 690.015 12.5444C689.83 12.4471 689.563 12.2634 689.729 12.174C689.895 12.0847 690.506 12.0866 690.837 12.0907C691.168 12.0948 691.199 12.101 691.241 12.1282" stroke="#055217" stroke-linecap="round" stroke-linejoin="round"/>
<path d="M681.823 9.58998C681.824 9.58998 681.825 9.58998 682.271 9.82155C682.716 10.0531 683.606 10.5163 684.205 10.8018C684.805 11.0873 685.088 11.1812 685.653 11.2881C686.217 11.395 687.055 11.5121 687.504 11.5724C687.952 11.6328 687.986 11.6328 687.161 11.5385C686.337 11.4442 684.653 11.2557 683.711 11.1377C682.769 11.0197 682.62 10.978 682.498 10.9367C682.149 10.8193 681.968 10.6503 681.873 10.5318C681.865 10.5211 681.93 10.5394 682.339 10.7584C682.747 10.9775 683.517 11.4006 684.013 11.6542C684.509 11.9077 684.706 11.9789 684.973 12.042C685.24 12.1051 685.57 12.1581 685.909 12.1854C686.248 12.2127 686.587 12.2128 686.722 12.2022C686.856 12.1916 686.777 12.1705 686.357 12.0917C685.938 12.0129 685.181 11.877 684.596 11.7398C684.011 11.6026 683.621 11.4682 683.361 11.3679C683.101 11.2677 682.983 11.2058 682.933 11.2029C682.883 11.1999 682.904 11.2578 683.087 11.589C683.269 11.9203 683.613 12.5233 683.729 12.7499C683.87 13.0248 683.247 12.2882 683.123 12.232C683.074 12.2099 683.106 12.5333 683.166 12.8369C683.226 13.1403 683.559 12.1821 683.678 12.1171C683.844 12.1407 684.033 12.2044 684.388 12.252C684.493 12.2586 684.602 12.2588 684.706 12.2845" stroke="#055217" stroke-linecap="round" stroke-linejoin="round"/>
<path d="M716.839 24.4294C716.833 24.3984 716.733 24.0621 716.583 23.5963C716.521 23.4053 716.508 23.3005 716.493 23.146C716.478 22.9915 716.468 22.789 716.444 22.3897C716.42 21.9905 716.384 21.4007 716.381 21.0248C716.377 20.504 716.464 20.2955 716.557 20.1118C716.72 19.7904 716.957 19.5274 717.106 19.3811C717.198 19.3026 717.276 19.2618 717.358 19.2304C717.395 19.2176 717.423 19.2111 717.459 19.2043" stroke="#055217" stroke-linecap="round" stroke-linejoin="round"/>
<path d="M717.459 19.2043C717.465 19.1795 717.527 19.0781 717.638 18.938C717.71 18.848 717.789 18.7805 718.052 18.5632C718.284 18.3714 718.714 18.0108 719.092 17.7289C719.469 17.4469 719.781 17.2537 720.251 17.018C720.721 16.7824 721.339 16.51 721.735 16.3528C722.131 16.1957 722.285 16.1619 722.486 16.1273C722.687 16.0926 722.929 16.0581 723.206 16.0144" stroke="#055217" stroke-linecap="round" stroke-linejoin="round"/>
<path d="M723.206 16.0144C723.232 16.0144 723.318 16.0086 723.791 15.8896C724.18 15.7914 724.928 15.6107 725.545 15.4706C726.161 15.3305 726.623 15.2382 727.016 15.1692C727.409 15.1002 727.719 15.0571 727.9 15.0295C728.348 14.9609 728.682 14.8335 728.645 14.8505C728.565 14.8867 728.457 15.1165 728.318 15.6511C728.27 15.8336 728.261 16.0762 728.252 16.3912C728.242 16.7062 728.251 17.09 728.296 17.4793C728.341 17.8686 728.424 18.2517 728.529 18.6263C728.634 19.0009 728.759 19.3553 728.914 19.7328C729.069 20.1103 729.25 20.5002 729.387 20.8331C729.524 21.1661 729.612 21.4304 729.663 21.6038C729.713 21.7771 729.721 21.8516 729.726 21.9606C729.731 22.0696 729.731 22.2107 729.731 22.3562" stroke="#055217" stroke-linecap="round" stroke-linejoin="round"/>
<path d="M717.052 24.508C717.052 24.4153 717.102 23.9689 717.203 23.599C717.265 23.375 717.41 23.1661 717.554 22.962C717.632 22.8513 717.734 22.7357 717.871 22.5902C718.008 22.4446 718.181 22.2751 718.378 22.1109C718.575 21.9466 718.791 21.7928 719.189 21.5755C719.586 21.3581 720.158 21.082 720.57 20.8985C720.982 20.7151 721.216 20.6328 721.468 20.5565C721.72 20.4802 721.983 20.4125 722.168 20.3565C722.353 20.3005 722.453 20.2583 722.519 20.228C722.585 20.1976 722.613 20.1805 722.669 20.1501" stroke="#055217" stroke-linecap="round" stroke-linejoin="round"/>
<path d="M722.669 20.1501C722.697 20.1493 723.156 20.0231 723.584 19.9186C723.668 19.898 723.821 19.8732 724.168 19.8429C724.392 19.8233 724.716 19.8275 724.938 19.8309C725.454 19.839 725.652 19.952 725.82 20.0762C726.073 20.2646 726.14 20.6075 726.186 20.802C726.239 21.0328 726.157 21.1179 726.07 21.3045C726.03 21.3893 725.936 21.4744 725.794 21.5949C725.715 21.6625 725.605 21.7247 725.029 21.9208C724.454 22.1169 723.413 22.4402 722.686 22.6959C721.959 22.9516 721.579 23.1299 721.142 23.3498" stroke="#055217" stroke-linecap="round" stroke-linejoin="round"/>
<path d="M723.344 22.5226C723.343 22.5226 723.18 22.5238 722.837 22.5607C722.654 22.5803 722.463 22.666 722.25 22.7543C722.037 22.8426 721.81 22.9472 721.602 23.0365C721.393 23.1258 721.209 23.1965 721.056 23.2627C720.903 23.3288 720.787 23.3881 720.605 23.5145C720.423 23.6409 720.178 23.8326 719.937 24.0685C719.696 24.3044 719.465 24.5788 719.286 24.8249C719.108 25.071 718.989 25.2806 718.861 25.4926C718.465 26.1507 718.397 26.2193 718.334 26.2947C718.297 26.3358 718.229 26.4099 718.143 26.5037C718.104 26.5453 718.074 26.5747 718.024 26.6278" stroke="#055217" stroke-linecap="round" stroke-linejoin="round"/>
<path d="M718.024 26.5722C718.025 26.5722 718.053 26.5667 718.446 26.4367C718.812 26.3152 719.515 26.0685 720.787 25.6699C722.059 25.2712 723.878 24.725 724.889 24.4146C725.9 24.1043 726.048 24.0463 726.143 24.0126C726.356 23.9372 726.537 23.9335 726.663 23.9206C726.688 23.9171 726.71 23.9104 726.76 23.8868C726.81 23.8633 726.887 23.8231 726.974 23.7768" stroke="#055217" stroke-linecap="round" stroke-linejoin="round"/>
<path d="M726.974 23.7768C727.04 23.7758 727.18 23.7687 727.575 23.5731C727.951 23.3868 728.674 23.0062 729.065 22.7995C729.456 22.5929 729.49 22.5674 729.405 22.6107C729.319 22.6541 729.113 22.7671 728.76 22.9385C728.407 23.1099 727.914 23.3362 727.63 23.4729C727.283 23.6402 727.192 23.7254 727.123 23.7954C727.057 23.8633 726.956 23.9519 726.798 24.0498C726.627 24.155 726.485 24.2187 725.974 24.3743C725.509 24.516 724.62 24.7624 723.958 24.9419C723.296 25.1213 722.886 25.2206 722.594 25.2847C722.303 25.3488 722.14 25.3748 721.958 25.4134C721.576 25.4943 721.257 25.5717 721.062 25.6011C720.984 25.6134 720.949 25.6205 720.893 25.6382C720.837 25.6559 720.761 25.684 720.661 25.7508" stroke="#055217" stroke-linecap="round" stroke-linejoin="round"/>
<path d="M719.893 25.5727C719.907 25.5417 719.993 25.4214 720.267 25.1843C720.481 24.9995 720.879 24.724 721.378 24.4302C721.876 24.1363 722.471 23.8428 723.404 23.4659C724.337 23.089 725.59 22.6377 726.28 22.3957C726.97 22.1537 727.059 22.1348 727.071 22.127C727.082 22.1192 727.012 22.1231 726.391 22.2934C725.77 22.4636 724.599 22.8002 723.705 23.1316C722.811 23.4629 722.228 23.7789 721.797 23.9911C721.367 24.2033 721.105 24.3022 720.962 24.359C720.802 24.4275 720.747 24.4831 720.683 24.5591C720.658 24.5914 720.645 24.6112 720.611 24.6573" stroke="#055217" stroke-linecap="round" stroke-linejoin="round"/>
<path d="M720.611 24.6573C720.556 24.6573 720.392 24.6765 720.303 24.7341C720.286 24.7447 720.305 24.7721 720.32 24.7883C720.391 24.8652 720.583 24.9112 721.054 25.0035C721.332 25.0581 721.547 25.0383 721.757 25.0092C721.901 24.9892 722.119 24.9331 722.741 24.7068C723.363 24.4804 724.382 24.0791 725.279 23.7632C726.176 23.4473 726.92 23.2291 727.411 23.0555C727.902 22.8819 728.117 22.7594 728.298 22.6402C728.479 22.5209 728.619 22.4086 728.701 22.3451C728.783 22.2816 728.802 22.2705 728.834 22.2531" stroke="#055217" stroke-linecap="round" stroke-linejoin="round"/>
<path d="M728.834 22.2531C728.833 22.1685 728.824 21.9706 728.701 21.6427C728.591 21.3515 728.358 20.8179 728.2 20.4782C727.979 20.0022 727.836 19.8384 727.768 19.7645C727.67 19.6581 727.469 19.6964 727.312 19.7445C727.056 19.823 726.918 20.0229 726.814 20.1593C726.738 20.26 726.748 20.521 726.766 20.9764C726.776 21.2422 726.818 21.577 726.854 21.8101C726.91 22.1673 726.977 22.3128 727.001 22.3575C727.013 22.3788 727.028 22.3943 727.054 22.3935C727.12 22.3915 727.32 22.1502 727.582 21.8166C727.776 21.5693 727.82 21.3936 727.85 21.2333C727.881 21.0654 727.778 20.7607 727.667 20.4319C727.637 20.3429 727.617 20.7035 727.616 21.2301C727.615 21.5889 727.707 21.7543 727.731 21.7887C727.851 21.9625 728.252 21.8981 728.285 21.9225C728.303 21.9352 728.306 21.9639 728.306 21.9865C728.307 22.029 727.945 22.066 727.393 22.0893C727.047 22.104 726.901 22.0257 726.779 21.9605C726.61 21.8545 726.526 21.828 726.441 21.823C726.386 21.8214 726.306 21.8214 726.223 21.8214" stroke="#055217" stroke-linecap="round" stroke-linejoin="round"/>
<path d="M717.148 23.1056C717.147 23.1056 717.147 23.1056 717.144 22.5847C717.141 22.0637 717.136 21.0217 717.135 20.4752C717.134 19.9287 717.138 19.9093 717.147 19.8918C717.156 19.8744 717.17 19.8594 717.181 19.8608C717.192 19.8621 717.2 19.8803 717.21 20.2422C717.219 20.6042 717.229 21.3095 717.255 21.7773C717.281 22.2451 717.323 22.4542 717.363 22.4155C717.403 22.3768 717.44 22.084 717.56 21.5857C717.681 21.0874 717.883 20.3925 718.045 19.9067C718.207 19.4209 718.324 19.1653 718.399 19.011C718.54 18.7215 718.728 18.5922 718.975 18.4274C719.072 18.3626 719.16 18.3036 719.285 18.2498C719.458 18.1748 719.746 18.1437 720.118 18.0765C720.318 18.0402 720.535 17.9611 720.736 17.8871C720.938 17.8132 721.117 17.737 721.366 17.6714C721.615 17.6059 721.929 17.5532 722.154 17.5235C722.38 17.4938 722.507 17.4886 722.099 17.7159C721.692 17.9433 720.746 18.4033 719.928 18.878C719.111 19.3527 718.452 19.828 718.066 20.1152C717.68 20.4024 717.588 20.4871 717.566 20.5209C717.544 20.5546 717.595 20.5349 718.043 20.3056C718.491 20.0763 719.335 19.6381 720.158 19.2957C720.982 18.9534 721.759 18.7202 722.587 18.5301C723.416 18.34 724.272 18.1999 724.698 18.1319C725.124 18.064 725.095 18.0724 723.986 18.5972C722.877 19.1221 720.689 20.1631 719.484 20.7306C718.279 21.298 718.123 21.3603 718.019 21.4054C717.915 21.4506 717.867 21.4768 718.08 21.2781C718.292 21.0793 718.766 20.6549 719.375 20.2327C719.983 19.8105 720.712 19.4035 721.581 19.0408C722.451 18.678 723.439 18.3718 724.47 18.0507" stroke="#055217" stroke-linecap="round" stroke-linejoin="round"/>
<path d="M724.447 18.0256C724.481 18.0204 724.954 17.8748 725.387 17.7783C725.547 17.7427 725.668 17.7759 725.729 17.7915C725.792 17.8078 725.856 17.8502 726.169 18.1197C726.451 18.363 726.967 18.8435 727.259 19.104C727.595 19.4032 727.711 19.4561 727.802 19.4873C728.004 19.5561 727.855 18.8648 727.789 18.5101C727.739 18.2388 727.628 17.7872 727.565 17.3685C727.501 16.9498 727.482 16.5791 727.473 16.3765C727.461 16.0822 727.56 15.8731 727.681 15.6793C727.702 15.6444 727.719 15.6325 727.71 15.6293C727.7 15.6261 727.666 15.6341 726.506 15.9739C725.345 16.3136 723.059 16.9849 721.886 17.3163C720.713 17.6478 720.723 17.6192 720.776 17.558C720.914 17.3963 721.059 17.2807 721.132 17.233C721.165 17.2115 721.193 17.2007 722.266 17.0423C723.339 16.8838 725.457 16.5795 726.536 16.4231C727.614 16.2668 727.59 16.2676 726.634 16.5353C725.679 16.8029 723.793 17.3373 723.597 17.5035C723.402 17.6697 724.954 17.4516 725.86 17.3062C726.766 17.1607 726.98 17.0946 727.104 17.055C727.229 17.0154 727.257 17.0044 727.275 17.0089C727.293 17.0135 727.3 17.034 727.303 17.3232C727.307 17.6125 727.307 18.1698 727.209 18.3232C727.04 18.5886 726.697 17.9019 726.656 17.8193C726.631 17.7692 726.607 17.6986 726.661 17.9867C726.716 18.2747 726.853 18.9226 726.911 19.2613C726.968 19.6 726.942 19.6099 726.919 19.6146C726.877 19.6232 726.825 19.61 726.503 19.4488C726.209 19.3017 725.662 18.9976 725.168 18.7758C724.674 18.554 724.252 18.4177 723.793 18.2849C723.334 18.1522 722.852 18.0272 722.605 17.953C722.358 17.8788 722.362 17.8591 722.41 17.8274C722.54 17.74 722.792 17.6632 723.068 17.5954C723.193 17.5648 723.293 17.5737 723.745 17.7087C724.198 17.8437 725 18.1126 725.509 18.3034C726.018 18.4942 726.208 18.5987 726.315 18.658C726.421 18.7173 726.437 18.7283 726.202 18.7506C725.967 18.7729 725.48 18.8061 724.938 18.8735C724.396 18.9409 723.813 19.0414 723.607 19.1185C723.4 19.1955 723.589 19.2461 723.954 19.2878C724.319 19.3295 724.855 19.3607 725.451 19.3644C726.046 19.368 726.684 19.3433 727.055 19.337C727.509 19.3293 727.719 19.3954 728 19.5011C728.159 19.5685 728.35 19.6638 728.46 19.7233C728.569 19.7828 728.592 19.8036 728.623 19.8689" stroke="#055217" stroke-linecap="round" stroke-linejoin="round"/>
<path d="M85.097 90.87C85.097 91.9214 85.2077 92.8067 85.429 93.526C85.7057 94.2454 86.0377 94.937 86.425 95.601C86.8123 96.2097 87.006 96.6247 87.006 96.846C87.006 97.4547 86.7017 98.0357 86.093 98.589C85.4843 99.1424 84.9033 99.419 84.35 99.419C83.2433 99.419 82.2473 98.7274 81.362 97.344C80.532 95.9607 80.117 94.6327 80.117 93.36V92.198C78.955 94.7434 77.1567 96.68 74.722 98.008C72.3427 99.336 69.6037 100 66.505 100C61.8017 100 58.288 98.3954 55.964 95.186C53.64 91.9767 52.478 87.301 52.478 81.159V60.658C52.478 59.9387 52.7547 59.3577 53.308 58.915C53.9167 58.4724 54.6637 58.251 55.549 58.251C56.4897 58.251 57.2643 58.4724 57.873 58.915C58.4817 59.3577 58.786 59.9387 58.786 60.658V81.325C58.786 85.973 59.45 89.376 60.778 91.534C62.106 93.692 64.2363 94.771 67.169 94.771C74.639 94.771 78.374 87.9927 78.374 74.436V60.575C78.374 59.6897 78.6507 58.998 79.204 58.5C79.7573 58.002 80.5043 57.753 81.445 57.753C82.441 57.753 83.2433 58.002 83.852 58.5C84.4607 58.998 84.765 59.6897 84.765 60.575L85.097 90.87ZM106.335 53.022C104.896 53.022 103.679 52.5517 102.683 51.611C101.687 50.615 101.189 49.37 101.189 47.876C101.189 46.382 101.687 45.1647 102.683 44.224C103.679 43.228 104.951 42.73 106.501 42.73C107.995 42.73 109.212 43.2004 110.153 44.141C111.149 45.0817 111.647 46.299 111.647 47.793C111.647 49.287 111.121 50.532 110.07 51.528C109.074 52.524 107.829 53.022 106.335 53.022ZM105.09 99.502C104.094 99.502 103.291 99.253 102.683 98.755C102.129 98.257 101.853 97.593 101.853 96.763L102.683 61.488C102.683 60.5474 102.959 59.828 103.513 59.33C104.121 58.832 104.924 58.583 105.92 58.583C106.916 58.583 107.69 58.832 108.244 59.33C108.852 59.828 109.157 60.575 109.157 61.571L108.327 96.763C108.271 97.6484 107.939 98.34 107.331 98.838C106.777 99.2807 106.03 99.502 105.09 99.502ZM144.155 57.753C153.506 57.753 158.182 64.3654 158.182 77.59V97.012C158.182 98.9487 157.158 99.917 155.111 99.917C152.897 99.917 151.791 98.9764 151.791 97.095V77.507C151.791 72.6377 151.237 69.0687 150.131 66.8C149.024 64.476 147.032 63.314 144.155 63.314C141.111 63.314 138.621 64.476 136.685 66.8C134.748 69.124 133.392 72.1674 132.618 75.93C132.12 78.4754 131.871 81.6017 131.871 85.309L131.954 97.593C131.954 98.3677 131.677 98.9764 131.124 99.419C130.57 99.8064 129.823 100 128.883 100C127.831 100 127.029 99.7787 126.476 99.336C125.922 98.8934 125.646 98.3124 125.646 97.593C125.646 92.6684 125.535 86.6647 125.314 79.582C125.148 75.4874 125.065 71.863 125.065 68.709C125.065 67.3257 124.899 66.2467 124.567 65.472C124.29 64.642 123.709 63.5077 122.824 62.069C122.602 61.737 122.492 61.3497 122.492 60.907C122.492 60.243 122.851 59.6344 123.571 59.081C124.345 58.4724 125.092 58.168 125.812 58.168C126.531 58.168 127.278 58.6937 128.053 59.745C128.661 60.6304 129.215 61.7094 129.713 62.982C130.266 64.1994 130.543 65.3614 130.543 66.468V67.381C131.539 64.6144 133.143 62.318 135.357 60.492C137.57 58.666 140.503 57.753 144.155 57.753ZM193.267 86.471C194.263 86.471 194.954 86.72 195.342 87.218C195.784 87.6607 196.006 88.4907 196.006 89.708C196.006 92.5854 195.037 95.02 193.101 97.012C191.219 99.004 188.785 100 185.797 100C181.647 100 178.659 98.174 176.833 94.522C175.062 90.87 174.177 85.1984 174.177 77.507C174.177 74.6297 174.315 71.3374 174.592 67.63C173.983 67.5747 172.268 67.4364 169.446 67.215C167.786 67.049 166.956 66.136 166.956 64.476C166.956 62.816 167.758 61.986 169.363 61.986C169.805 61.986 170.746 62.0414 172.185 62.152C173.402 62.2627 174.343 62.318 175.007 62.318C175.394 58.2234 176.058 53.0774 176.999 46.88C177.109 46.05 177.386 45.4414 177.829 45.054C178.327 44.6114 179.101 44.39 180.153 44.39C181.204 44.39 182.034 44.6667 182.643 45.22C183.251 45.7734 183.5 46.465 183.39 47.295L182.975 50.034C182.145 56.4527 181.619 60.658 181.398 62.65L188.038 62.816C188.868 62.816 189.476 62.982 189.864 63.314C190.306 63.646 190.528 64.227 190.528 65.057C190.528 66.1084 190.306 66.8277 189.864 67.215C189.476 67.547 188.702 67.7407 187.54 67.796C185.824 67.8514 183.611 67.879 180.9 67.879C180.623 71.365 180.485 74.5744 180.485 77.507C180.485 82.8744 180.9 87.0797 181.73 90.123C182.615 93.1664 184.192 94.688 186.461 94.688C187.678 94.688 188.646 94.2177 189.366 93.277C190.085 92.3364 190.5 90.9254 190.611 89.044C190.666 88.1587 190.832 87.5224 191.109 87.135C191.441 86.6924 192.16 86.471 193.267 86.471ZM244.762 94.605C245.537 94.7157 246.118 94.937 246.505 95.269C246.893 95.601 247.086 96.2097 247.086 97.095C247.086 97.925 246.865 98.589 246.422 99.087C246.035 99.585 245.482 99.834 244.762 99.834C242.494 99.834 240.806 99.4744 239.699 98.755C238.648 98.0357 237.735 96.68 236.96 94.688C234.47 98.7274 230.044 100.747 223.68 100.747C219.198 100.747 215.574 99.751 212.807 97.759C210.041 95.767 208.049 93.2494 206.831 90.206C205.669 87.1074 205.088 83.8427 205.088 80.412C205.088 76.7047 205.835 73.2187 207.329 69.954C208.823 66.6894 211.009 64.061 213.886 62.069C216.819 60.077 220.305 59.081 224.344 59.081C227.111 59.081 229.518 59.6344 231.565 60.741C233.613 61.8477 235.217 63.397 236.379 65.389L236.711 62.65C236.822 60.6027 237.763 59.579 239.533 59.579C240.64 59.579 241.47 59.8557 242.023 60.409C242.632 60.907 242.881 61.5157 242.77 62.235L242.521 64.31C242.134 66.634 241.857 69.041 241.691 71.531C241.525 73.6337 241.442 76.4557 241.442 79.997V85.724C241.442 88.1034 241.498 89.874 241.608 91.036C241.774 92.1427 242.079 93.0004 242.521 93.609C242.964 94.2177 243.711 94.5497 244.762 94.605ZM235.134 85.641C235.19 83.0404 235.217 79.6927 235.217 75.598C235.217 72.8867 234.636 70.701 233.474 69.041C232.312 67.3257 230.901 66.1084 229.241 65.389C227.581 64.6697 226.004 64.31 224.51 64.31C221.578 64.31 219.115 65.14 217.123 66.8C215.187 68.46 213.748 70.535 212.807 73.025C211.922 75.515 211.479 77.9774 211.479 80.412C211.479 84.2854 212.42 87.7714 214.301 90.87C216.238 93.9134 219.392 95.435 223.763 95.435C227.028 95.435 229.712 94.605 231.814 92.945C233.972 91.2297 235.079 88.795 235.134 85.641ZM272.322 100.415C268.56 100.415 265.35 99.502 262.694 97.676C260.038 95.7947 257.963 93.4154 256.469 90.538C256.082 89.7634 255.888 89.2377 255.888 88.961C255.888 88.1864 256.22 87.5224 256.884 86.969C257.604 86.3604 258.378 86.056 259.208 86.056C259.762 86.056 260.177 86.222 260.453 86.554C260.785 86.8307 261.228 87.3564 261.781 88.131C263.165 90.2337 264.631 91.9214 266.18 93.194C267.73 94.4114 269.777 95.02 272.322 95.02C274.702 95.02 276.666 94.439 278.215 93.277C279.82 92.115 280.622 90.6487 280.622 88.878C280.622 87.6054 280.18 86.5264 279.294 85.641C278.464 84.7557 277.413 84.0364 276.14 83.483C274.923 82.9297 273.152 82.238 270.828 81.408C267.896 80.3567 265.516 79.416 263.69 78.586C261.92 77.7007 260.398 76.4834 259.125 74.934C257.853 73.3294 257.216 71.3097 257.216 68.875C257.216 66.717 257.797 64.725 258.959 62.899C260.177 61.0177 261.892 59.5237 264.105 58.417C266.319 57.3104 268.864 56.757 271.741 56.757C274.619 56.757 277.164 57.3104 279.377 58.417C281.591 59.5237 283.306 60.99 284.523 62.816C285.741 64.642 286.349 66.6617 286.349 68.875C286.349 69.9817 286.128 70.784 285.685 71.282C285.298 71.78 284.579 72.029 283.527 72.029C282.421 72.029 281.674 71.8354 281.286 71.448C280.954 71.0054 280.761 70.452 280.705 69.788C280.484 67.1874 279.571 65.2784 277.966 64.061C276.362 62.7884 274.287 62.152 271.741 62.152C268.753 62.152 266.623 62.8714 265.35 64.31C264.133 65.6934 263.524 67.1874 263.524 68.792C263.524 70.6734 264.327 72.1397 265.931 73.191C267.591 74.187 270.137 75.2937 273.567 76.511C276.5 77.5624 278.852 78.5307 280.622 79.416C282.393 80.3014 283.887 81.5187 285.104 83.068C286.377 84.6174 287.013 86.554 287.013 88.878C287.013 92.4747 285.602 95.2967 282.78 97.344C279.958 99.3914 276.472 100.415 272.322 100.415ZM336.534 121.497C335.594 121.497 334.791 121.193 334.127 120.584C333.519 120.031 333.214 119.339 333.214 118.509C333.214 118.177 333.297 117.79 333.463 117.347C336.507 109.822 339.107 103.016 341.265 96.929C338.997 95.4904 336.59 92.779 334.044 88.795C331.499 84.811 329.175 80.329 327.072 75.349C325.025 70.3137 323.448 65.6657 322.341 61.405C322.231 61.073 322.175 60.7134 322.175 60.326C322.175 59.662 322.452 59.081 323.005 58.583C323.559 58.085 324.361 57.836 325.412 57.836C326.242 57.836 326.823 58.002 327.155 58.334C327.487 58.666 327.764 59.247 327.985 60.077C333.629 77.4517 338.775 87.6607 343.423 90.704C346.799 78.752 349.593 68.4324 351.806 59.745C352.028 58.9704 352.332 58.417 352.719 58.085C353.107 57.753 353.715 57.587 354.545 57.587C356.593 57.587 357.782 58.417 358.114 60.077C358.17 60.2984 358.142 60.6027 358.031 60.99C356.15 68.7367 354.601 74.7404 353.383 79.001C352.221 83.2617 350.755 87.965 348.984 93.111C347.712 96.763 346.107 101.217 344.17 106.474C342.289 111.786 340.712 116.047 339.439 119.256C339.163 120.031 338.775 120.584 338.277 120.916C337.835 121.303 337.254 121.497 336.534 121.497ZM432.381 90.206C432.768 92.5854 433.045 94.4114 433.211 95.684C433.377 96.9567 433.46 98.2847 433.46 99.668C433.46 103.873 432.63 107.553 430.97 110.707C429.31 113.916 426.958 116.379 423.915 118.094C420.871 119.865 417.358 120.75 413.374 120.75C410.441 120.75 407.702 120.114 405.157 118.841C402.611 117.624 400.564 115.964 399.015 113.861C397.521 111.814 396.774 109.573 396.774 107.138C396.774 105.478 397.797 104.648 399.845 104.648C400.509 104.648 401.007 104.786 401.339 105.063C401.726 105.395 402.003 105.921 402.169 106.64C402.833 109.573 404.133 111.758 406.07 113.197C408.062 114.636 410.496 115.355 413.374 115.355C417.8 115.355 421.203 113.972 423.583 111.205C425.962 108.438 427.152 104.593 427.152 99.668C427.152 98.0634 426.93 95.9884 426.488 93.443C425.215 95.3244 423.417 96.846 421.093 98.008C418.824 99.1147 416.14 99.668 413.042 99.668C408.947 99.668 405.35 98.7274 402.252 96.846C399.153 94.9647 396.774 92.4747 395.114 89.376C393.509 86.2774 392.707 82.9297 392.707 79.333C392.707 75.6257 393.509 72.1397 395.114 68.875C396.718 65.6104 398.987 62.982 401.92 60.99C404.908 58.998 408.338 58.002 412.212 58.002C414.702 58.002 416.887 58.3617 418.769 59.081C420.705 59.8004 422.199 60.6857 423.251 61.737C424.136 59.1917 424.662 57.753 424.828 57.421C425.326 56.4804 426.045 56.01 426.986 56.01C427.816 56.01 428.59 56.2314 429.31 56.674C430.084 57.1167 430.499 57.67 430.555 58.334C430.555 58.666 430.527 58.915 430.472 59.081C430.416 59.3024 430.223 59.911 429.891 60.907C429.614 61.903 429.227 63.3694 428.729 65.306L431.717 85.807L432.381 90.206ZM412.959 93.775C414.729 93.775 416.528 93.4154 418.354 92.696C420.18 91.9214 421.757 90.9807 423.085 89.874C424.413 88.712 425.215 87.5777 425.492 86.471C425.215 83.815 424.551 79.3884 423.5 73.191L422.753 68.875C422.476 68.1557 421.84 67.4087 420.844 66.634C419.848 65.804 418.603 65.1124 417.109 64.559C415.615 64.0057 414.038 63.729 412.378 63.729C409.777 63.729 407.453 64.4207 405.406 65.804C403.414 67.132 401.837 68.958 400.675 71.282C399.568 73.606 399.015 76.2067 399.015 79.084C399.015 81.6847 399.513 84.1194 400.509 86.388C401.56 88.6014 403.137 90.3997 405.24 91.783C407.342 93.111 409.915 93.775 412.959 93.775ZM462.433 57.338C465.974 57.338 468.741 58.4724 470.733 60.741C472.725 62.9544 473.721 65.6657 473.721 68.875C473.721 71.9184 472.808 74.3254 470.982 76.096C469.156 77.8114 466.804 78.669 463.927 78.669C462.82 78.669 462.018 78.503 461.52 78.171C461.077 77.839 460.856 77.2304 460.856 76.345C460.856 74.9064 461.548 74.1594 462.931 74.104C466.528 73.772 468.326 72.0014 468.326 68.792C468.326 67.0767 467.856 65.6104 466.915 64.393C465.974 63.1757 464.453 62.567 462.35 62.567C460.137 62.567 458.2 63.5077 456.54 65.389C454.935 67.2704 453.663 69.622 452.722 72.444C451.781 75.2107 451.228 77.9497 451.062 80.661C450.73 85.7517 450.564 90.5657 450.564 95.103C450.564 97.3717 450.343 98.8657 449.9 99.585C449.513 100.304 448.71 100.664 447.493 100.664C446.276 100.664 445.418 100.387 444.92 99.834C444.477 99.2254 444.256 98.2017 444.256 96.763L444.173 80.91C444.173 77.258 443.896 72.444 443.343 66.468C443.011 62.982 442.817 60.492 442.762 58.998C442.707 58.1127 442.956 57.4487 443.509 57.006C444.062 56.508 444.837 56.259 445.833 56.259C447.548 56.259 448.461 57.089 448.572 58.749C448.904 62.235 449.098 65.638 449.153 68.958C450.094 65.306 451.726 62.4564 454.05 60.409C456.374 58.3617 459.168 57.338 462.433 57.338ZM523.185 94.605C523.96 94.7157 524.541 94.937 524.928 95.269C525.316 95.601 525.509 96.2097 525.509 97.095C525.509 97.925 525.288 98.589 524.845 99.087C524.458 99.585 523.905 99.834 523.185 99.834C520.917 99.834 519.229 99.4744 518.122 98.755C517.071 98.0357 516.158 96.68 515.383 94.688C512.893 98.7274 508.467 100.747 502.103 100.747C497.621 100.747 493.997 99.751 491.23 97.759C488.464 95.767 486.472 93.2494 485.254 90.206C484.092 87.1074 483.511 83.8427 483.511 80.412C483.511 76.7047 484.258 73.2187 485.752 69.954C487.246 66.6894 489.432 64.061 492.309 62.069C495.242 60.077 498.728 59.081 502.767 59.081C505.534 59.081 507.941 59.6344 509.988 60.741C512.036 61.8477 513.64 63.397 514.802 65.389L515.134 62.65C515.245 60.6027 516.186 59.579 517.956 59.579C519.063 59.579 519.893 59.8557 520.446 60.409C521.055 60.907 521.304 61.5157 521.193 62.235L520.944 64.31C520.557 66.634 520.28 69.041 520.114 71.531C519.948 73.6337 519.865 76.4557 519.865 79.997V85.724C519.865 88.1034 519.921 89.874 520.031 91.036C520.197 92.1427 520.502 93.0004 520.944 93.609C521.387 94.2177 522.134 94.5497 523.185 94.605ZM513.557 85.641C513.613 83.0404 513.64 79.6927 513.64 75.598C513.64 72.8867 513.059 70.701 511.897 69.041C510.735 67.3257 509.324 66.1084 507.664 65.389C506.004 64.6697 504.427 64.31 502.933 64.31C500.001 64.31 497.538 65.14 495.546 66.8C493.61 68.46 492.171 70.535 491.23 73.025C490.345 75.515 489.902 77.9774 489.902 80.412C489.902 84.2854 490.843 87.7714 492.724 90.87C494.661 93.9134 497.815 95.435 502.186 95.435C505.451 95.435 508.135 94.605 510.237 92.945C512.395 91.2297 513.502 88.795 513.557 85.641ZM556.804 57.753C566.155 57.753 570.831 64.3654 570.831 77.59V97.012C570.831 98.9487 569.807 99.917 567.76 99.917C565.547 99.917 564.44 98.9764 564.44 97.095V77.507C564.44 72.6377 563.887 69.0687 562.78 66.8C561.673 64.476 559.681 63.314 556.804 63.314C553.761 63.314 551.271 64.476 549.334 66.8C547.397 69.124 546.042 72.1674 545.267 75.93C544.769 78.4754 544.52 81.6017 544.52 85.309L544.603 97.593C544.603 98.3677 544.326 98.9764 543.773 99.419C543.22 99.8064 542.473 100 541.532 100C540.481 100 539.678 99.7787 539.125 99.336C538.572 98.8934 538.295 98.3124 538.295 97.593C538.295 92.6684 538.184 86.6647 537.963 79.582C537.797 75.4874 537.714 71.863 537.714 68.709C537.714 67.3257 537.548 66.2467 537.216 65.472C536.939 64.642 536.358 63.5077 535.473 62.069C535.252 61.737 535.141 61.3497 535.141 60.907C535.141 60.243 535.501 59.6344 536.22 59.081C536.995 58.4724 537.742 58.168 538.461 58.168C539.18 58.168 539.927 58.6937 540.702 59.745C541.311 60.6304 541.864 61.7094 542.362 62.982C542.915 64.1994 543.192 65.3614 543.192 66.468V67.381C544.188 64.6144 545.793 62.318 548.006 60.492C550.219 58.666 553.152 57.753 556.804 57.753ZM593.217 52.939C591.723 52.939 590.45 52.4687 589.399 51.528C588.403 50.532 587.905 49.3147 587.905 47.876C587.905 46.4374 588.403 45.2477 589.399 44.307C590.395 43.311 591.668 42.813 593.217 42.813C594.766 42.813 596.011 43.311 596.952 44.307C597.948 45.2477 598.446 46.4374 598.446 47.876C598.446 49.37 597.92 50.5874 596.869 51.528C595.873 52.4687 594.656 52.939 593.217 52.939ZM581.597 119.588C578.166 119.588 575.344 118.481 573.131 116.268C570.862 114.11 569.728 111.343 569.728 107.968C569.728 106.695 569.949 105.81 570.392 105.312C570.835 104.814 571.582 104.565 572.633 104.565C574.514 104.565 575.538 105.478 575.704 107.304C575.981 109.849 576.534 111.648 577.364 112.699C578.249 113.806 579.494 114.359 581.099 114.359C586.3 114.359 589.012 108.909 589.233 98.008C589.565 84.562 589.731 72.278 589.731 61.156C589.731 60.4367 589.98 59.8557 590.478 59.413C591.031 58.915 591.861 58.666 592.968 58.666C595.015 58.666 596.039 59.5514 596.039 61.322C596.039 73.0527 595.873 85.2814 595.541 98.008C595.32 105.035 594.019 110.375 591.64 114.027C589.261 117.734 585.913 119.588 581.597 119.588ZM648.739 94.605C649.514 94.7157 650.095 94.937 650.482 95.269C650.869 95.601 651.063 96.2097 651.063 97.095C651.063 97.925 650.842 98.589 650.399 99.087C650.012 99.585 649.458 99.834 648.739 99.834C646.47 99.834 644.783 99.4744 643.676 98.755C642.625 98.0357 641.712 96.68 640.937 94.688C638.447 98.7274 634.02 100.747 627.657 100.747C623.175 100.747 619.551 99.751 616.784 97.759C614.017 95.767 612.025 93.2494 610.808 90.206C609.646 87.1074 609.065 83.8427 609.065 80.412C609.065 76.7047 609.812 73.2187 611.306 69.954C612.8 66.6894 614.986 64.061 617.863 62.069C620.796 60.077 624.282 59.081 628.321 59.081C631.088 59.081 633.495 59.6344 635.542 60.741C637.589 61.8477 639.194 63.397 640.356 65.389L640.688 62.65C640.799 60.6027 641.739 59.579 643.51 59.579C644.617 59.579 645.447 59.8557 646 60.409C646.609 60.907 646.858 61.5157 646.747 62.235L646.498 64.31C646.111 66.634 645.834 69.041 645.668 71.531C645.502 73.6337 645.419 76.4557 645.419 79.997V85.724C645.419 88.1034 645.474 89.874 645.585 91.036C645.751 92.1427 646.055 93.0004 646.498 93.609C646.941 94.2177 647.688 94.5497 648.739 94.605ZM639.111 85.641C639.166 83.0404 639.194 79.6927 639.194 75.598C639.194 72.8867 638.613 70.701 637.451 69.041C636.289 67.3257 634.878 66.1084 633.218 65.389C631.558 64.6697 629.981 64.31 628.487 64.31C625.554 64.31 623.092 65.14 621.1 66.8C619.163 68.46 617.725 70.535 616.784 73.025C615.899 75.515 615.456 77.9774 615.456 80.412C615.456 84.2854 616.397 87.7714 618.278 90.87C620.215 93.9134 623.369 95.435 627.74 95.435C631.005 95.435 633.688 94.605 635.791 92.945C637.949 91.2297 639.056 88.795 639.111 85.641Z" fill="black"/>
<path d="M684.491 22.3259C684.363 22.1201 683.166 20.5927 682.304 19.1689C681.567 17.9528 681.417 16.3811 681.057 15.1211C680.633 13.6382 680.229 12.4103 680.076 11.5014C679.738 9.78656 679.563 8.99618 679.48 8.56776C679.441 8.37299 679.406 8.22416 679.362 8.04685" stroke="#055217" stroke-width="2" stroke-linecap="round" stroke-linejoin="round"/>
<path d="M679.362 8.04685C679.575 8.04685 680.188 8.09636 681.344 8.67872C682.805 9.41497 685.348 10.2704 686.033 10.5145C686.795 10.7857 687.825 10.9883 689.248 11.043C691.905 11.1451 692.516 10.9688 694.25 10.6945C695.43 10.5077 696.965 10.6558 697.569 10.8385C698.064 10.9882 698.359 11.4823 698.865 12.378C699.531 13.5563 699.991 14.6049 700.24 15.1826C700.492 15.7674 700.789 16.8088 701.052 17.6024C701.251 18.2015 701.225 18.7727 701.375 19.316C701.588 20.0866 701.973 20.89 702.083 21.4406C702.235 22.2008 702.238 22.8184 702.262 23.3193C702.266 23.4684 702.276 23.6499 702.295 23.7993C702.314 23.9487 702.343 24.0604 702.372 24.2275" stroke="#055217" stroke-width="2" stroke-linecap="round" stroke-linejoin="round"/>
<path d="M700.181 26.1367C700.052 26.1217 699.562 26.0322 698.67 25.7644C697.902 25.5339 695.54 25.5162 694.069 25.568C693.484 25.5886 693.009 25.6998 690.77 25.7393C689.803 25.7563 688.943 25.5052 688.302 25.3359C687.718 25.1814 686.984 24.7369 686.361 24.2924C685.35 23.5709 684.823 22.548 684.214 21.5439C683.452 20.2853 683.077 18.9969 682.743 17.7376C682.672 17.471 682.681 17.1922 682.771 17.0466C683.14 16.4519 684.379 17.1373 685.67 17.4599C685.935 17.5262 686.07 17.5813 686.168 17.6607C686.583 17.9947 686.744 19.0497 687.076 19.655C687.437 20.3141 689.178 20.955 690.393 21.352C691.681 21.7725 692.642 21.8054 693.418 21.9018C693.578 21.929 693.735 21.9649 693.885 22.0034C694.035 22.042 694.174 22.0821 694.427 22.1856" stroke="#055217" stroke-width="2" stroke-linecap="round" stroke-linejoin="round"/>
<path d="M702.128 26.7945C702.105 26.6751 702.006 26.1981 701.365 25.1358C700.718 24.0612 699.248 23.2635 697.701 21.8794C696.955 21.2122 696.111 20.7988 694.562 20.0284C693.546 19.5833 692.313 19.1893 689.4 18.6164C688.838 18.5095 688.683 18.4674 688.311 18.421" stroke="#011A07" stroke-width="2" stroke-linecap="round" stroke-linejoin="round"/>
</svg>
